<?xml version="1.0" encoding="UTF-8"?>
<svg xmlns="http://www.w3.org/2000/svg" version="1.2" baseProfile="tiny-ps" viewBox="-23.5 -248.38 712 712" width="512" height="512">
<title>AutoFlow</title>
<rect x="-23.5" y="-248.38" width="712" height="712" fill="#FFFFFF"/><path fill="#95a8bc" d="m368 9 3-1h3l3-1 3 2c2.6.4 2.6.4 5.7.6l3.4.2 3.5.3 18.5 1.5c3.9.4 3.9.4 7.3.3 2.6.1 2.6.1 4.6 2.1l5 1 1-2 1 2 7.3 2.2 2 .6c3.6.9 6.3 1.6 9.7.2l-1-5 3-1 1.6 1.7a59 59 0 0 0 11.6 8.6C467 24 467 24 470 25l5 5a32 32 0 0 0 10 6l3 5 2 2h4v7c-4.2 2.2-8.4 3-13 4l-3.7.8c-10.2 2-10.2 2-15 2.7-3.3.5-3.3.5-6.3 1.5q-9 1.3-18 1l-1-3.4-2-3.6c-3-.8-3-.8-7-1l-5.2-1c-3.1-.7-5.5-1-8.8-1l-1-2h-3.4c-3.6 0-3.6 0-5.6-1h-9.9q-6 .1-12.1-1l-1 2h-2l-1 2a38 38 0 0 0 13 2c4.4-.2 7.8.7 12 2.4 2.4.7 3.7.4 6-.4v3l3-.2c4.4.2 7 1.4 11 3.2l7 1v2h5v2l3.3 1.5 20.7 9.9 2.9 1.4C464 79 464 79 465 81l2.6.9a38 38 0 0 1 8.4 4l2 1.1 2.4 1.4c5.9 3.2 9.9 4 16.6 3.6l1 1c8.3 1.4 8.3 1.4 12 0v1l31 3.8 2.6.3L561 100v2l1.9.2 2.4.2 2.4.3c2.3.3 2.3.3 5.3 1.3l1-2 1 2q3.7 1.2 7.6 2l2.1.6q6.6 1.5 13.3 2.4v2h3v2l6.8 2.4c2.2.6 2.2.6 4.2-.4l2 2c4.8 4.1 9.5 8 16 8l-1 3 3.3 1.8c2.6 1.5 4.9 2.8 6.7 5.2v2l3 1-1 2h5c-1 25-1 25-4 28l-1 6-.6 3.4-.4 2.6h3v2h3v3l10 3-1 4c-11 6.1-27.8 4.2-40 4h-9.9l-2.6-.1a30 30 0 0 0-6.5 1.1l-5-1-3 1-6-1v-7h3l-2-1 .5-2.5c1.4-9.7 1.4-9.7-.5-13.5l2-1c-.8-4.8-.8-4.8-3-7-.3-2.7 0-5.3 0-8h-5l-1-6-3-1c-2.5-2-3.6-4.1-5-7l-2-2 1-1h-3c-2-1-2-1-4-4l-2-1v-2l-4.9-.6-2.7-.4H548l-2 2-1-3q-1.1 0-2.3.3l-3 .3-3.1.3c-2.6.1-2.6.1-4.6-.9l-1 2h-10l-1 5h-3v-2l-4.8 2.3-2.7 1.3a22 22 0 0 0-5.5 4.4h-2v2c-3 2-3 2-5 2.8-2 1.2-2 1.2-2.8 3.8a20 20 0 0 1-4.8 7.6c-4 5-4.5 9.4-4.4 15.8v6c-8 2.2-14.9 1.9-23 1l-6-.5q-3.5-.2-7-1-4-.9-8.2-1c-18.8-1.4-18.8-1.4-25.8-3.5l-1-2h-1.9l-2.4.1-2.4.1c-2.3-.2-2.3-.2-5.3-2.2l-7.8-1.5A81 81 0 0 1 380 167l-8.2-2.6-2.1-.7c-3-1-5.5-1.7-8.7-1.7v-2h-3v-2q-4-1.1-8-1.4c-3-.4-5.4-1-8-2.6v-2a31 31 0 0 0-13-3l1-2-9-3 2 5 2-1v3c4.7 2 4.7 2 7.1 2.3 1.9.7 1.9.7 3.7 3.6l1.2 3.1-1 2-8-1a63 63 0 0 0 22 3v3l11.3 3.1 2.4.7 2.2.6 2.1.6 2.1.6c1.9.4 1.9.4 3.9-.6v3l7 1 1-2 4 6-4 1v1h-7l3.5.2 4.4.2 2.3.2c5.7.3 5.7.3 6.8 1.4l7.8 1 2.5.2q29.2 3.2 58.7 2.8v1h4.4l2.5-.1c2.1.1 2.1.1 3.1 1.1 7.5 1.2 15 1 22.6.8 3.3.2 5.5.8 8.4 2.2l1-2v2l5-1v-1h5v2l21-1v2l24-2v4h-6v2h-2l-1 2-4.7.5c-3.1.2-5.5.6-8.5 1.6-3.4 1-6.3 1-9.8.9l-2 .5q-3 .7-6.2.5h-2.4l-5-.1c-4.2 0-8 .1-12 1.1-6.8 1.5-13.4 1.2-20.2 1q-11-.2-22 .5-8.6.7-17.4 0c-10.5-.5-10.5-.5-15-.5q-9.5-.1-18.9-1l-3.7-.2q-7.5-.5-14.9-1.4c-3.2-.4-5.2 0-8.3.6l-4-1-3 1-7-1-2 1-2-2c-4.6-1-9.5-1-14.2-1q-5.4 0-10.8-1a433 433 0 0 0-50.2-2.1h-2.4c-18.7 0-18.7 0-25.5 1.6a25 25 0 0 1-6.6.6h-2.5l-1.8-.1-1 2h-6v2l-3.4-.1a55 55 0 0 0-21.2 2.4c-4.7 1.4-11 1.9-15.4-.3l-1 2v-2l-7-1v-1l6-1v-4c-3.4.3-3.4.3-7 1-1.4 2-1.4 2-2 4h-3.4q-7.4.2-14.8 1.4-16.5 2.6-33.4 2.7h-2.3q-5.2.1-10.1-1.1l-4.5-.5q-3.3-.2-6.4-1-3.9-.8-7.8-1l-3-.3-2.3-.2v-2l-2-1-1 2-1.6-1.2-2.2-1.7-2-1.6q-3-2-6.2-3.5l-3-3c1 1 1 1 2 4-3-1-3-1-4.2-3.4-.8-2.6-.8-2.6.2-4.6l1.6.5c5.2 1 10.5.7 15.8.7h3.8q11.2.1 22.1-1.8 5.3-.7 10.7-.4l-1-3 4-1 1 2q20.7-4.7 41-11v-1l-2-1-1-2h-4l-1 2 2 1h-3v-2l-4.2.4-2.4.2c-2.5.4-4.3 1-6.4 2.4l-1 2-1.7-.6c-3-.5-4.6.2-7.3 1.6l-1 2-2-1-3 2v2c-3-1-3-1-5-3l-2 3v-2l-4 .4c-12 1.3-23.9 2.5-36 .6l-1 2q-9.6-1-19-2.5l-7-1c-4.4-.8-7.8-2.3-11-5.5l-3 1-2-1v-2l-9-3v-4h-2l-1 2-1-3-2.3-.9c-3.3-1.4-4.5-3.3-6.7-6.1l-5-2c-1.8-2.6-2-3.8-2-7h-3v-3l-2-1 1-2q-1.7-3.4-3.9-6.7C13 133 13 133 13 129h2v3l3.3-.2c3.7.2 3.7.2 5 1.6C29.2 139 42.5 139 50 140l1-2 1 2h2l2.8-.1 2.7-.1c2.5.2 2.5.2 5.5 2.2l1-3 2.4.2 3.3.3 3.2.3c7.5.5 7.5.5 10.1-.8v2c5.7-.9 5.7-.9 8-2l1 2 1.5-1c3.7-1.5 6.6-.7 10.5 0l1-2 2.8.6c3.2.4 3.2.4 6.2-.6h9l-3-3-2 1v-2l-4.4.9-2.4.5c-2.2.6-2.2.6-4.2 2.6l-1-2h-5.7l-3.2.1a49 49 0 0 1-11.9-2.1c-5-1.3-10.1-1.4-15.4-1.6-5.6-.2-5.6-.2-7.8-2.4l-3-1-6.2-3c-5-2.2-9.5-4-14.8-5v-3h-2v-2h-5v-2l-3-1c-1.7-1.4-1.7-1.4-3-3v-2h-3c-1.8-2-1.8-2-3.7-4.5l-1.9-2.5-1.4-2-2 1-1-7-5-1 1.1-1.7c.9-2.3.9-2.3 0-5L9 83l5 .4 2.7.2 2.3.4 1 2c3 .9 3 .9 6.7 1.6l3.7.8q4.8.7 9.6.6l1 1a145 145 0 0 0 25 1.1h29.4c16 0 16 0 22.6-1.1l1-2 6-1 1-2-3 1-4-2c-2.3-.2-2.3-.2-4.8-.2h-6l-3.2.1-13.7.1-10 .1h-3A50 50 0 0 1 62 82v-4l-6-1v-1l2.9-.1c47.6-2 47.6-2 65.1-7.9l5.8-.7q6.3-1 12.4-2.9l5.3-1.3 2.3-.7c2.2-.4 2.2-.4 6.2-.4l1-2 4-1q6.1-1.2 12-3.4c2-.6 2-.6 5-.6l1-3v2l2.3-.9 3-1.1 3-1.1c2.7-.9 2.7-.9 5.7-.9l1-2c1.8-.7 1.8-.7 4.2-1.3q9.9-3 19.3-6.5c26.8-9.6 26.8-9.6 38.2-12.8l2.9-.8 5.6-1.5 2.5-.7 2.3-.6c2-.8 2-.8 3.5-2.4 1.5-1.4 1.5-1.4 5.1-1.3h2.4q6-.4 12-2l2.2-.6c5.5-1.3 5.5-1.3 7.8-2.5l8.1-.6h2.3l5.6-.4v-2l2.6-.1Q340.3 10.6 360 9V8c4.6-1.2 4.6-1.2 8 1m6 41 4 1Zm-48 28v2l-3-1-2 2c-1.9.2-1.9.2-4.1 0-10.5-.2-10.5-.2-14.9 2l-2.7-.5c-5-.8-9.4.2-14.3 1.6q-6.7 2-13-1.1-3.5.5-7.1 1.3l-2 .4c-5 1-9.3 2.4-13.9 4.3l-6 2 1 2h3.9l2.2.1C252 93 252 93 254 92v2c45.8 5.7 45.8 5.7 66.6 5.9 2.4.1 2.4.1 5.2.6q4.7.7 9.4.6h7.6l37.6-.2h6.8c2.8.1 2.8.1 5 .7l1.8.4 2-2v2q5 .5 10 0c2.5-2.3 2.5-2.3 5-5q5-1.9 10-3c-1-3-1-3-3.5-4.4L414 88l-2.3-1c-5-2.4-9-4-14.7-4l-4-1-4-.4c-2.4-.3-4-.6-6.4-1.6-7.2-2.7-15.6-2.1-23.2-2.1h-3zm-49 5 1 2Zm-150 2-1 4 4-1h-2zm7 2v1h5v-1zm141 37 1 2 2-1zm4 1 1 2Zm300 0v2h2l1 2v-5c-1 0-1 0-3 1m-298 1v2l-2 1h3l1-3zm303 0-1 3h2l.8 2.3c2 4.5 5 6.4 9.2 8.7h2l1 2h15v-3l-2.7-1.2c-3.3-1.8-3.3-1.8-5.1-4-3-2.4-5.2-2.2-9-2.5-3.3-.5-5.5-2.3-8.2-4.3zm-298 2-4 2q6 1.9 12 3v2l3.4 1c3.6 1 3.6 1 4.6 2l6 3c.8-1.7.8-1.7 1-4-2.4-2.7-2.4-2.7-5-5v2h-2v-2l-5.2-2.1-3-1.2c-2.8-.7-2.8-.7-5.2.2L287 130zm-110 1-2 2h6zm-36 2 3 6-4 1 10-1-3-1v-2l2.3.7 2.7.3 3-3zm23 0-1 3h4v-3zm4 0 1 2 6-1v-1zm-7 0-4 2v2h5l1-3zm-33 2-1 2h2zm2 0v3l3-1h-2zm5 1-1 5h5c1.1-3.7 1.1-3.7 0-6-2 0-2 0-4 1m17 1v1h5v-1zm-25 1 2 1 1 2v-3zm184 2-1 4 6 1 1 3 2-1v-5c-3-1.3-4.8-2-8-2m-192 2 4 1Zm454 5 1 2Zm-311 6-5-1h-10v2l-2.1-.6c-3.6-.5-5.6.4-8.9 1.6l-3.2.5c-2.8.5-2.8.5-5.8 2.5l-2-1-3 3-1-2-5 1 1 4-3-2c-4.7-.5-7 .4-11 3-2.3.7-2.3.7-4 1v3c6 1.8 11 0 17-1.7l6.1-1.7 3-.9A177 177 0 0 1 251 157l1-1h42l1-2h-2v-3c-2.2-.7-3.6-1.1-5.8-.4-3.4.6-6-.6-9.2-1.6l-1 3-3-2c-2.6-.5-2.6-.5-5.6-.7l-2.9-.3c-2.5 0-2.5 0-4.5 2m35 3-1 2 3.9.6 2.2.3c1.9.1 1.9.1 3.9-.9v-2zm20 2 4 2 1-2zm-9 1 4 1Zm5 1 4 1Zm-118 5-.4 2.4c-.6 2.6-.6 2.6-2.6 4.6 3.7-.5 5.8-.9 9-3h-3l-1-3zm-12 3v3l-4-1 1 3c3.6 1.8 5.4 2.2 9.4 1.1l2.6-1.1-2-6q-3.5.1-7 1m439 3q-1 0-2 .3c-3 1.1-4.2 3-6 5.7-.7 2.8-.7 2.8-1 5h8c5.6-.5 5.6-.5 7.4-2.7.8-3 .4-5.3-.4-8.3-2.5-1.3-3.3-.8-6 0m-36 9 1 2Zm-233 2v1h6v-1zm14 1v1h6v-1zm218 3 1 2Zm-376 11 1 2Zm-8 2-1 2 3 1-1-3zm4 0v3h2v-3z"/><path fill="#38c8fd" d="m368 9 3-1h3l3-1 3 2c2.6.4 2.6.4 5.7.6l3.4.2 3.5.3 18.5 1.5c3.9.4 3.9.4 7.3.3 2.6.1 2.6.1 4.6 2.1l5 1 1-2 1 2 7.3 2.2 2 .6c3.6.9 6.3 1.6 9.7.2l-1-5 3-1 1.6 1.7a59 59 0 0 0 11.6 8.6C467 24 467 24 470 25l5 5a32 32 0 0 0 10 6l3 5 2 2h4v7c-4.2 2.2-8.4 3-13 4l-3.7.8c-10.2 2-10.2 2-15 2.7-3.3.5-3.3.5-6.3 1.5q-9 1.3-18 1l-1-3.4-2-3.6c-3-.8-3-.8-7-1l-5.2-1c-3.1-.7-5.5-1-8.8-1l-1-2h-3.4c-3.6 0-3.6 0-5.6-1h-9.9q-6 .1-12.1-1l-1 2h-2l-1 2a38 38 0 0 0 13 2c4.4-.2 7.8.7 12 2.4 2.4.7 3.7.4 6-.4v3l3-.2c4.4.2 7 1.4 11 3.2l7 1v2h5v2l6 3c-2 1-2 1-3.8.5l-2.3-1-2.5-1-2.8-1.1Q419 61 407.6 58l-2.1-.6c-14.5-3.4-29-3.9-43.9-3.8h-2.8c-15.1 0-29.9.7-44.8 3.3l-3.3.6A530 530 0 0 0 200.4 91l-2.6 1-2.4 1c-2.4.9-2.4.9-7.4 1.9l21 1v1l-17.8.6q-9.6.2-19 1.2-4.5.4-8.8.3H158l-.3 2.3q-1.6 7.6-3.8 15l-.8 3.2-2.1 7.5c13.6-.3 26.6-3 40-5.5l16-3c36.5-7 73.8-2.3 107 14.5-4.3 1.4-7-.5-11-2.2l-12.1-5.2a70 70 0 0 0-33.2-2q-7.6.5-15.4.3c-21.8-.5-42.1 4-63.3 8.6-51.7 11-112 21-163 1.5l2 6c-3.1-2.5-4-5.2-5-9v-2h2v3l3.3-.2c3.7.2 3.7.2 5 1.6C29.2 139 42.5 139 50 140l1-2 1 2h2l2.8-.1 2.7-.1c2.5.2 2.5.2 5.5 2.2l1-3 2.4.2 3.3.3 3.2.3c7.5.5 7.5.5 10.1-.8v2c5.7-.9 5.7-.9 8-2l1 2 1.5-1c3.7-1.5 6.6-.7 10.5 0l1-2 2.8.6c3.2.4 3.2.4 6.2-.6h9l-3-3-2 1v-2l-4.4.9-2.4.5c-2.2.6-2.2.6-4.2 2.6l-1-2h-5.7l-3.2.1a49 49 0 0 1-11.9-2.1c-5-1.3-10.1-1.4-15.4-1.6-5.6-.2-5.6-.2-7.8-2.4l-3-1-6.2-3c-5-2.2-9.5-4-14.8-5v-3h-2v-2h-5v-2l-3-1c-1.7-1.4-1.7-1.4-3-3v-2h-3c-1.8-2-1.8-2-3.7-4.5l-1.9-2.5-1.4-2-2 1-1-7-5-1 1.1-1.7c.9-2.3.9-2.3 0-5L9 83l5 .4 2.7.2 2.3.4 1 2c3 .9 3 .9 6.7 1.6l3.7.8q4.8.7 9.6.6l1 1a145 145 0 0 0 25 1.1h29.4c16 0 16 0 22.6-1.1l1-2 6-1 1-2-3 1-4-2c-2.3-.2-2.3-.2-4.8-.2h-6l-3.2.1-13.7.1-10 .1h-3A50 50 0 0 1 62 82v-4l-6-1v-1l2.9-.1c47.6-2 47.6-2 65.1-7.9l5.8-.7q6.3-1 12.4-2.9l5.3-1.3 2.3-.7c2.2-.4 2.2-.4 6.2-.4l1-2 4-1q6.1-1.2 12-3.4c2-.6 2-.6 5-.6l1-3v2l2.3-.9 3-1.1 3-1.1c2.7-.9 2.7-.9 5.7-.9l1-2c1.8-.7 1.8-.7 4.2-1.3q9.9-3 19.3-6.5c26.8-9.6 26.8-9.6 38.2-12.8l2.9-.8 5.6-1.5 2.5-.7 2.3-.6c2-.8 2-.8 3.5-2.4 1.5-1.4 1.5-1.4 5.1-1.3h2.4q6-.4 12-2l2.2-.6c5.5-1.3 5.5-1.3 7.8-2.5l8.1-.6h2.3l5.6-.4v-2l2.6-.1Q340.3 10.6 360 9V8c4.6-1.2 4.6-1.2 8 1m6 41 4 1ZM127 85l-1 4 4-1h-2zm7 2v1h5v-1zm42 42-2 2h6zm-36 2 3 6-4 1 10-1-3-1v-2l2.3.7 2.7.3 3-3zm23 0-1 3h4v-3zm4 0 1 2 6-1v-1zm-7 0-4 2v2h5l1-3zm-33 2-1 2h2zm2 0v3l3-1h-2zm5 1-1 5h5c1.1-3.7 1.1-3.7 0-6-2 0-2 0-4 1m17 1v1h5v-1zm-25 1 2 1 1 2v-3zm-8 4 4 1Z"/><path fill="#01b8a8" d="M18 140q4.7 4.4 8.6 9.8C39.5 166 61.8 175.4 82 178q7.5.4 15.1.4h2.1c32.2-.1 63.1-9.7 93.6-19a445 445 0 0 1 48.7-12.1c8.6-1.7 17.3-1.7 26-1.6h2.5c11.9 0 23.4.5 35 3.3l2.7.6 15.5 4c1.8.4 1.8.4 3.8.4l-4-4 2-2v3c4.7 2 4.7 2 7.1 2.3 1.9.7 1.9.7 3.7 3.6l1.2 3.1-1 2-8-1a63 63 0 0 0 22 3v3l11.3 3.1 2.4.7 2.2.6 2.1.6 2.1.6c1.9.4 1.9.4 3.9-.6v3l7 1 1-2 4 6-4 1v1h-7l3.5.2 4.4.2 2.3.2c5.7.3 5.7.3 6.8 1.4l7.8 1 2.5.2q29.2 3.2 58.7 2.8v1h4.4l2.5-.1c2.1.1 2.1.1 3.1 1.1 7.5 1.2 15 1 22.6.8 3.3.2 5.5.8 8.4 2.2l1-2v2l5-1v-1h5v2l21-1v2l24-2v4h-6v2h-2l-1 2-4.7.5c-3.1.2-5.5.6-8.5 1.6-3.4 1-6.3 1-9.8.9l-2 .5q-3 .7-6.2.5h-2.4l-5-.1c-4.2 0-8 .1-12 1.1-6.8 1.5-13.4 1.2-20.2 1q-11-.2-22 .5-8.6.7-17.4 0c-10.5-.5-10.5-.5-15-.5q-9.5-.1-18.9-1l-3.7-.2q-7.5-.5-14.9-1.4c-3.2-.4-5.2 0-8.3.6l-4-1-3 1-7-1-2 1-2-2c-4.6-1-9.5-1-14.2-1q-5.4 0-10.8-1a433 433 0 0 0-50.2-2.1h-2.4c-18.7 0-18.7 0-25.5 1.6a25 25 0 0 1-6.6.6h-2.5l-1.8-.1-1 2h-6v2l-3.4-.1a55 55 0 0 0-21.2 2.4c-4.7 1.4-11 1.9-15.4-.3l-1 2v-2l-7-1v-1l6-1v-4c-3.4.3-3.4.3-7 1-1.4 2-1.4 2-2 4h-3.4q-7.4.2-14.8 1.4-16.5 2.6-33.4 2.7h-2.3q-5.2.1-10.1-1.1l-4.5-.5q-3.3-.2-6.4-1-3.9-.8-7.8-1l-3-.3-2.3-.2v-2l-2-1-1 2-1.6-1.2-2.2-1.7-2-1.6q-3-2-6.2-3.5c-1.8-1.6-1.8-1.6-3-3 1 1 1 1 2 4-3-1-3-1-4.2-3.4-.8-2.6-.8-2.6.2-4.6l1.6.5c5.2 1 10.5.7 15.8.7h3.8q11.2.1 22.1-1.8 5.3-.7 10.7-.4l-1-3 4-1 1 2q20.7-4.7 41-11v-1l-2-1-1-2h-4l-1 2 2 1h-3v-2l-4.2.4-2.4.2c-2.5.4-4.3 1-6.4 2.4l-1 2-1.7-.6c-3-.5-4.6.2-7.3 1.6l-1 2-2-1-3 2v2c-3-1-3-1-5-3l-2 3v-2l-4 .4c-12 1.3-23.9 2.5-36 .6l-1 2q-9.6-1-19-2.5l-7-1c-4.4-.8-7.8-2.3-11-5.5l-3 1-2-1v-2l-9-3v-4h-2l-1 2-1-3-2.3-.9c-3.3-1.4-4.5-3.3-6.7-6.1l-5-2c-1.8-2.6-2-3.8-2-7h-3v-3l-2-1zm243 11-5-1h-10v2l-2.1-.6c-3.6-.5-5.6.4-8.9 1.6l-3.2.5c-2.8.5-2.8.5-5.8 2.5l-2-1-3 3-1-2-5 1 1 4-3-2c-4.7-.5-7 .4-11 3-2.3.7-2.3.7-4 1v3c6 1.8 11 0 17-1.7l6.1-1.7 3-.9A177 177 0 0 1 251 157l1-1h42l1-2h-2v-3c-2.2-.7-3.6-1.1-5.8-.4-3.4.6-6-.6-9.2-1.6l-1 3-3-2c-2.6-.5-2.6-.5-5.6-.7l-2.9-.3c-2.5 0-2.5 0-4.5 2m35 3-1 2 3.9.6 2.2.3c1.9.1 1.9.1 3.9-.9v-2zm20 2 4 2 1-2zm-9 1 4 1Zm5 1 4 1Zm-118 5-.4 2.4c-.6 2.6-.6 2.6-2.6 4.6 3.7-.5 5.8-.9 9-3h-3l-1-3zm-12 3v3l-4-1 1 3c3.6 1.8 5.4 2.2 9.4 1.1l2.6-1.1-2-6q-3.5.1-7 1m170 14v1h6v-1zm14 1v1h6v-1zm-158 14 1 2Zm-8 2-1 2 3 1-1-3zm4 0v3h2v-3z"/><path fill="#dbe3ea" d="M436.6 67q3.3 1.4 6.6 2.3 7 2.4 13.3 5.8l2.2 1c5.2 2.7 5.2 2.7 6.3 4.9l2.6.9a38 38 0 0 1 8.4 4l2 1.1 2.4 1.4c5.9 3.2 9.9 4 16.6 3.6l1 1c8.3 1.4 8.3 1.4 12 0v1l31 3.8 2.6.3L561 100v2l1.9.2 2.4.2 2.4.3c2.3.3 2.3.3 5.3 1.3l1-2 1 2q3.7 1.2 7.6 2l2.1.6q6.6 1.5 13.3 2.4v2h3v2l6.8 2.4c2.2.6 2.2.6 4.2-.4 2 2 2 2 3.7 4.4 2.6 3 5.1 4.7 8.4 6.8A60 60 0 0 1 641 141c.6 3.3 0 5.8-1 9l-.6 3.4-.4 2.6v3l-1 4-4 1-1-1-6-1-3.4-.6-2.6-.4 1 3h-3c-3 .3-3.9.9-5.9 3l-3.4 4.9c-1.8 2.2-3.1 3-5.7 4.1l-1 2h-2v6l5 1v3h-8v2h16v1h-28l.3-11.7c0-15-2.5-24.9-11.3-37.3l-2-3 2-2 1 3 3 2 2 5 2 2v3h2l2 3 3 1 1-2.4c1-2.6 1-2.6 2-4.6h4l-2-6h32a156 156 0 0 0-60-24l2.3 1.3c3 2 5.3 4.1 7.7 6.7l-4-1-3.7-.9-3.3-1.1-1-3-2-1v-2l-3 1c-1.8-.5-1.8-.5-3.8-1.4-4.8-1.9-9.1-3.4-14.2-1.6v-2h-7l-1-2h-1v1l-11 1v2l-33.2.1h-7.7q-3-.2-6.1-1.1l-6.4-.3-3.8-.1-4-.2H457q-8-.4-16.3-.4c-3.6 0-3.6 0-4.6-1h-5.7q-10.7 0-21.5-1-16.5-1-33-1.7-11.4-.4-22.8-1.3v-2l-2.3.5c-4.9.7-9.6.3-14.4 0l-5.7-.3-2.5-.2c-2.1 0-2.1 0-4.1 1v-3h-4.9l-2.8.1c-2.3-.1-2.3-.1-3.3-1.1q-4.2 0-8.2.2c-2.9-.2-4.4-.8-6.8-2.2v3h-3v-2l-2.7.1c-3.3-.1-4.5-.7-7.3-2.1-2-.5-2-.5-4.3-.8l-2.5-.3-2.7-.4-2.8-.4q-11-1.4-22-2.4A126 126 0 0 1 234 94v-1c38.4 1.6 38.4 1.6 54.6 4 8.6 1.2 17.2 1.5 25.9 1.7h3l2.8.1c2.7.2 2.7.2 5.5.7q4.7.7 9.4.6h52.1l8.7-.1v2l10-1v-2h3l2-4v3l2.1-.8 9.6-3.3 3.3-1.1 3.3-1.1 3-1a11 11 0 0 1 9.6 1.4q.7.8 1.7 1.4l1.8 1.5 8.6 7c-3.5 1.1-6.4 1-10 .7l-3.5-.3-3.7-.3q-11.3-1.2-22.8-1.1l7 1v1l54 1-16-9-7.3-4.4C395.4 56.6 342 60 280 75l-9.6 2.6c-2.5.4-4 .2-6.4-.6l6.8-2 3.7-1.1c3.5-.9 3.5-.9 7.5-.9l1-2h2l1-5q-4 .6-7.7 2a43 43 0 0 1-10.2 1.7c-2.3.3-4 1.2-6.1 2.3l-4.6 1-2.6.5-2.8.5-5.6 1.1-4.4.9c1-2 1-2 4-3l3.8-1.2 2.2-.6 7-2 2.3-.6c56.3-15.9 120-26.6 175.3-1.6"/><path fill="#f9830e" d="M330 155c-3.4 1.1-3.8 1-7-.3-5.5-2-11.2-3.1-17-4.3l-3.2-.7c-44.3-9-86.1 3.3-128.3 16.2q-19.4 6.1-39.4 9.8l-3.5.6c-32 5.8-64.6 5-92.3-13.6A84 84 0 0 1 15 134l2-1 5.7 2.2a104 104 0 0 0 22.6 5.5c51.1 8.5 103.8-2.3 153.7-13.4 46.4-10.2 92.4-.4 131 27.7"/><path fill="#012456" d="M390 41v1h-2l-9.1.4h-3.2A46 46 0 0 0 361 45l-4.4.4c-4.4.4-9.4 1.4-12.6 4.6l26 1v1l-2.3.1a506 506 0 0 0-167.3 39l-2.6 1-2.4 1c-2.4.9-2.4.9-7.4 1.9l21 1v1l-17.8.6q-9.6.2-19 1.2-4.5.4-8.8.3h-3.1L158 99l-.3 2.3q-1.6 7.6-3.8 15l-.8 3.2-2.1 7.5c13.6-.3 26.6-3 40-5.5l16-3c36.5-7 73.8-2.3 107 14.5-4.3 1.4-7-.5-11-2.2l-12.1-5.2a70 70 0 0 0-33.2-2q-7.6.5-15.4.3c-21.8-.5-42.1 4-63.3 8.6-51.7 11-112 21-163 1.5l2 6c-3.1-2.5-4-5.2-5-9v-2h2v3l3.3-.2c3.7.2 3.7.2 5 1.6C29.2 139 42.5 139 50 140l1-2 1 2h2l2.8-.1 2.7-.1c2.5.2 2.5.2 5.5 2.2l1-3 2.4.2 3.3.3 3.2.3c7.5.5 7.5.5 10.1-.8v2c5.8-.9 5.8-.9 8-2l1 2 1.5-1c3.7-1.5 6.6-.7 10.5 0l1-2 2.8.6c3.2.4 3.2.4 6.2-.6a81 81 0 0 1 9 0l-3-3-2 1v-2l-6.8 1.4c-2.2.6-2.2.6-4.2 2.6l-1-2h-5.7l-3.2.1a49 49 0 0 1-11.9-2.1c-5-1.3-10.1-1.4-15.4-1.6-5.6-.2-5.6-.2-7.8-2.4l-3-1-6.2-3c-5-2.2-9.5-4-14.8-5v-3h-2v-2h-5v-2l-3-1c-1.7-1.4-1.7-1.4-3-3v-2h-3c-1.8-2-1.8-2-3.7-4.5l-1.9-2.5-1.4-2-2 1-1-7h3l5 5.4A95 95 0 0 0 72 127l3.1.8c13.4 3 26.8 2.5 40.4 2.4l25.5-.2.4-1.8q1.3-6.3 3.3-12.5l.9-2.3 1-3 3.4-9.4h-36v-1q1 0 2-.3A585 585 0 0 0 234 70l-2 .5-2.8.6-3.1.7-24.4 5.7q-19.2 4.6-38.5 7.9l-2.4.4-10.4 1.7q-4.2.6-8.4.5l2-1v-3l-2.2.3c-3.7-.4-5-2-7.8-4.3-3.3-.7-3.3-.7-6-1v-1l2.3-.3q43.4-6.4 86.1-16.2A718 718 0 0 1 390 41m-214 88-2 2h6zm-36 2 3 6-4 1 10-1-3-1v-2l2.3.7 2.7.3 3-3zm23 0-1 3h4v-3zm4 0 1 2 6-1v-1zm-7 0-4 2v2h5l1-3zm-33 2-1 2h2zm2 0v3l3-1h-2zm5 1-1 5h5c1.1-3.7 1.1-3.7 0-6-2 0-2 0-4 1m17 1v1h5v-1zm-25 1 2 1 1 2v-3zm-8 4 4 1Z"/><path fill="#0aa0fa" d="M141 67c-2 3-2 3-4.5 3.6l-3.2.4q-7.8 1-15.4 2.6l-3.7.7q-3.6.7-7.2 1.7v2h10v-2l7.7.7c2.3.3 2.3.3 3.3 1.3l3.3.3c4.2.8 5 1.7 7.7 4.7 2.7.8 2.7.8 5 1v3a354 354 0 0 0 45-7.8c30.2-6.2 30.2-6.2 42.7-9.9 5.1-1.4 5.1-1.4 7.3-.3q-7.8 3-15.7 5.6l-2.2.7A527 527 0 0 1 122 100l28 1c-1.8 7.3-3.6 14.2-6.2 21.3l-.8 2.2-2 5.5q-16.3 1.4-32.6 1.3h-2.6c-13 0-25.3-.6-37.8-4.3l-3.3-.9c-17.5-5.1-36.7-16-47.2-31.3C16 93 16 93 12.3 92.3L9 92l1.1-1.7c.9-2.3.9-2.3 0-5L9 83l10 1 1 2c3 .9 3 .9 6.7 1.6l3.7.8q4.8.7 9.6.6l1 1a145 145 0 0 0 25 1.1h29.4c16 0 16 0 22.6-1.1l1-2 6-1 1-2-3 1-4-2c-2.3-.2-2.3-.2-4.8-.2h-6l-3.2.1-13.7.1-10 .1h-3A50 50 0 0 1 62 82v-4l-6-1v-1l2.9-.1c48.8-2.1 48.8-2.1 65.1-7.9l4-.6c4-.4 4-.4 6.8-1a11 11 0 0 1 6.2.6m-14 18-1 4 4-1h-2zm7 2v1h5v-1z"/><path fill="#0ca5fa" d="M310.9 179.7h3.5q27.3 0 54.5 3l12 1.4L409 187l3.3.3c10 1 20 .8 30 .8l18.7-.1v1h4.4l2.5-.1c2.1.1 2.1.1 3.1 1.1l5.6.6 3 .2 2.4.2v2h3q28.5.8 57 2a23 23 0 0 1-10.4 2.8l-4 .3-4.3.4-2.2.2a983 983 0 0 1-79.2 3.6h-2.3a686 686 0 0 1-66.6-3.8 870 870 0 0 0-85.1-5h-3.3a328 328 0 0 0-57.2 5.2L203 203c2.6-2 4.8-3.5 8-4.6l2.2-.8 2.4-1 2.6-.8 12.1-4.4a215 215 0 0 1 44-10c12.1-1.9 24.3-1.8 36.6-1.7"/><path fill="#2c5a83" d="M285 119c9 1.9 18 3.8 26.9 6.6l2 .6q5 1.4 9.1 4.8c-1.3 1.5-1.3 1.5-3 3h-3a326 326 0 0 0 103 37.6c19.7 4.1 40 5.6 60 7.4v-8h-12.4q-6.8.3-13.6-1v-1h2.2l9.7-.3h3.4l3.3-.2h3l2.4-.5c2.4-3.5 3.7-7 5-11l4-4 3.5-5.2a63 63 0 0 1 36-22.5c15.3-2 28.7-.1 41.5 9.1a49 49 0 0 1 19 31.6c.5 8.4.6 16.8-1 25l12-1v-2h8l-1-3c-2-.7-2-.7-4-1-1.1-3.7-1.1-3.7 0-6h2l.9-1.9c1.1-2.1 1.1-2.1 3.1-4.1h2l2.8-4c2.8-3.9 2.8-3.9 6.6-5h2.6v-2l9 .7c3 .3 3 .3 6 1.3l2-4-1-3h2v-5.3l-.1-2.9c.1-2.8.1-2.8.9-4.9.2-1.9.2-1.9-1.4-4.2A136 136 0 0 0 617 122l2-1 5.1 3c1.9 1 1.9 1 5.9 1l-1 3 3.3 1.8c2.6 1.5 4.9 2.8 6.7 5.2v2l3 1-1 2h5c-1 25-1 25-4 28l-1 6-.6 3.4-.4 2.6h3v2h3v3l10 3-1 4c-11 6.1-27.8 4.2-40 4h-9.9l-2.6-.1a30 30 0 0 0-6.5 1.1l-5-1-3 1-6-1v-7h3l-2-1 .5-2.5c1.4-9.7 1.4-9.7-.5-13.5l2-1c-.7-4.8-.7-4.8-3-7-.3-2.7 0-5.3 0-8h-5l-1-6-3-1c-2.5-2-3.6-4.1-5-7l-2-2 1-1h-3c-2-1-2-1-4-4l-2-1v-2l-4.9-.6-2.7-.4H548l-2 2-1-3q-1.1 0-2.3.3l-3 .3-3.1.3c-2.6.1-2.6.1-4.6-.9l-1 2h-10l-1 5h-3v-2l-4.8 2.3-2.7 1.3a22 22 0 0 0-5.5 4.4h-2v2c-3 2-3 2-5 2.8-2 1.2-2 1.2-2.8 3.8a20 20 0 0 1-4.8 7.6c-4 5-4.5 9.4-4.4 15.8v6c-8 2.2-14.9 1.9-23 1l-6-.5q-3.5-.2-7-1-4-.9-8.2-1c-18.8-1.4-18.8-1.4-25.8-3.5l-1-2h-1.9l-2.4.1-2.4.1c-2.3-.2-2.3-.2-5.3-2.2l-7.8-1.5A81 81 0 0 1 380 167l-8.2-2.6-2.1-.7c-3-1-5.5-1.7-8.7-1.7v-2h-3v-2q-4-1.1-8-1.4c-3-.4-5.4-1-8-2.6v-2a31 31 0 0 0-13-3l1-2-9-3 2 6a88 88 0 0 1-9.5-4.3c-18.5-9.6-37-16.8-57.5-20.7l1-2h2.4c2.6 0 2.6 0 3.6-1 13.5-1.3 24.3 1 36.8 6.1L310 132l-9.6-3.9-2.8-1q-6.7-2.8-13.6-5.1zm-10 5 1 2 2-1zm4 1 1 2Zm2 1v2l-2 1h3l1-3zm5 2-4 2q6 1.9 12 3v2l3.4 1c3.6 1 3.6 1 4.6 2l6 3c.8-1.7.8-1.7 1-4-2.4-2.7-2.4-2.7-5-5v2h-2v-2l-5.2-2.1-3-1.2c-2.8-.7-2.8-.7-5.2.2L287 130zm24 10-1 4 6 1 1 3 2-1v-5c-3-1.3-4.8-2-8-2m262 7 1 2Zm49 24q-1 0-2 .3c-3 1.1-4.2 3-6 5.7-.7 2.8-.7 2.8-1 5h8c5.6-.5 5.6-.5 7.4-2.7.8-3 .4-5.3-.4-8.3-2.5-1.3-3.3-.8-6 0m-36 9 1 2Zm-1 6 1 2Z"/><path fill="#426686" d="M361 61.8h2.2c11.2 0 22 .5 32.8 3.2l2 .5a230 230 0 0 1 79 39.5l-67-1 4-2v-2a279 279 0 0 1 28.8 1.3l10.2.7-8.9-7.3c-4.8-3.7-4.8-3.7-8.3-3.7q-3.5.8-6.8 2l-2 .7-7.8 2.7c-4.9 1.7-4.9 1.7-8.2.6 6.6-3 6.6-3 10-3-2.4-4.7-11.1-7-16-9l-2-.5c-2-.5-2-.5-5-2.5l-1 2-1.5-.4c-2.5-.6-2.5-.6-6.4-1-2.5-.3-4.2-.6-6.5-1.6-6.9-2.6-15-2.1-22.2-2h-24.1q-5.2.3-10.3-1v2h-3l-2 2c-1.9.2-1.9.2-4.1 0-10.5-.2-10.5-.2-14.9 2l-2.7-.5c-5-.7-9 0-13.7 1.6q-7 2-13.6-1.1-3.5.5-7.1 1.3-1 0-2 .4c-5 1-9.3 2.4-13.9 4.3l-3 1.2-2 .8h10v2h7v1q-12.6.3-25-2l-1-4q10.3-5.5 21.7-8.7l3.4-1c24.9-7.1 50.3-13 75.9-16.3l2-.3c7.7-1 15.3-1 23-1M277 83l1 2Z"/><path fill="#e7edf1" d="M182.5 97.8h21.7c18.3 0 36.4.7 54.4 4.4l3.1.6A197 197 0 0 1 324 129c-3.6 1.2-4.5.7-8-.7q-9-3.3-18.1-5.6l-3.2-.9-3-.7-2.6-.7-2.1-.4-1 1q-6.9-.4-13.4-1.7a175 175 0 0 0-70.3 1q-9 1.9-18.1 3.5l-6.3 1.2q-13.8 2.5-27.9 3l2.9-11.1.8-3.2q1.8-7.5 4.3-14.7a254 254 0 0 1 24.5-1.2"/><path fill="#86966e" d="M18 140q4.7 4.4 8.6 9.8C39.5 166 61.8 175.4 82 178q7.5.4 15.1.4h2.1c32.2-.1 63.1-9.7 93.6-19a445 445 0 0 1 48.7-12.1c8.6-1.7 17.3-1.7 26-1.6h2.5c11.9 0 23.4.5 35 3.3l2.7.6 15.5 4c1.8.4 1.8.4 3.8.4l-4-4 2-2v3c4.7 2 4.7 2 7.1 2.3 1.9.7 1.9.7 3.7 3.6l1.2 3.1-1 2-8-1a63 63 0 0 0 22 3v3l11.3 3.1 2.4.7 2.2.6 2.1.6 2.1.6c1.9.4 1.9.4 3.9-.6v3l7 1 1-2 4 6-4 1v1h-7l3.5.2 4.4.2 2.3.2c5.7.3 5.7.3 6.8 1.4l8 1 2.4.2q17.2 1.6 34.6 2.8v1a300 300 0 0 1-42.2-2.4q-17.2-1.5-34.6-3.6a319 319 0 0 0-106.2 3l-2.6.5q-13 3-25.4 7.6c-3 .9-3 .9-6-.1l14-5-3-2-4 1h-8c4-2.6 8-3.6 12.4-4.9l2.9-.8c24.6-6.8 49.2-9.5 74.7-9.5h3q32.6.1 65 4.2l-20.5-6a380 380 0 0 0-46.8-11.2l-3-.5a197 197 0 0 0-32.3-2.5h-3.2q-11.8 0-23.4 1.8-5.4.6-10.8.4v-1c4.7-1.2 9.2-1 14-1l1-2h42l-1-4-3.6.6c-4 .5-6.7 0-10.4-1.6l-1 3-1.7-1a23 23 0 0 0-7.9-1.7l-2.8-.3c-2.6 0-2.6 0-5.6 2-2.1-.3-2.1-.3-5-1l-9-1v2c-5.7 1.1-5.7 1.1-8 0l-1 2-7 1c-2.3 1-2.3 1-4 2h-2l-4 3v-3l-4 1 1 4-3-1q-3.5-.9-7-1l-2 2-6 2-1 2 2 1h-3l-2-2-1 4-4 1-1-4h-7v3l-2.2.1-2.7.3-2.8.2-2.3.4-1 2 2 1h-3v-2l-4.2.4-2.4.2c-2.5.4-4.3 1-6.4 2.4l-1 2-1.7-.6c-3-.5-4.6.2-7.3 1.6l-1 2-2-1-3 2v2c-3-1-3-1-5-3l-2 3v-2l-4 .4c-12 1.3-23.9 2.5-36 .6l-1 2q-9.6-1-19-2.5l-7-1c-4.4-.8-7.8-2.3-11-5.5l-3 1-2-1v-2l-9-3v-4h-2l-1 2-1-3-2.3-.9c-3.3-1.4-4.5-3.3-6.7-6.1l-5-2c-1.8-2.6-2-3.8-2-7h-3v-3l-2-1zm278 14-1 2 3.9.6 2.2.3c1.9.1 1.9.1 3.9-.9v-2zm20 2 4 2 1-2zm-9 1 4 1Zm5 1 4 1Zm40 22v1h6v-1zm14 1v1h6v-1z"/><path fill="#1c6a7a" d="m226 186 8 1v3l-14 4v2l-15 6 6-1.3a390 390 0 0 1 76.1-8.2h3.3c27.7-.1 55.1 2.4 82.7 5l2.6.2 12.6 1.1a565 565 0 0 0 54.6 2.5q24.4-.2 49-1.7l3.4-.2q21.4-1.1 42.7-3.4l-3.8-.2-20.5-.9c-21.9-1-21.9-1-31.7-1.9v-1l7.2-.6 2-.2c4.2-.3 7 0 10.8 1.8l1-2v2l5-1v-1h5v2l21-1v2l24-2v4h-6v2h-2l-1 2-4.7.5c-3.1.2-5.5.6-8.5 1.6-3.4 1-6.3 1-9.8.9l-2 .5q-3 .7-6.2.5h-2.4l-5-.1q-6.1-.2-12 1.1c-6.8 1.5-13.4 1.2-20.2 1q-11-.2-22 .5-8.6.7-17.4 0c-10.5-.5-10.5-.5-15-.5q-9.5-.1-18.9-1l-3.7-.2q-7.5-.5-14.9-1.4c-3.2-.4-5.2 0-8.3.6l-4-1-3 1-7-1-2 1-2-2c-4.6-1-9.5-1-14.2-1q-5.4 0-10.8-1a433 433 0 0 0-50.2-2.1h-2.4c-18.7 0-18.7 0-25.5 1.6a25 25 0 0 1-6.6.6h-2.5l-1.8-.1-1 2h-6v2l-3.4-.1a55 55 0 0 0-21.2 2.4c-4.7 1.4-11 1.9-15.4-.3l-1 2v-2l-7-1v-1l6-1v-4c-3.4.3-3.4.3-7 1-1.4 2-1.4 2-2 4h-3.4q-7.4.2-14.8 1.4-16.5 2.6-33.4 2.7h-2.3q-5.2.1-10.1-1.1l-4.5-.5q-3.3-.2-6.4-1-3.9-.8-7.8-1l-3-.3-2.3-.2v-2l-2-1-1 2-1.6-1.2-2.2-1.7-2-1.6q-3-2-6.2-3.5l-3-3c1 1 1 1 2 4-3-1-3-1-4.2-3.4-.8-2.6-.8-2.6.2-4.6l1.6.5q4.2.7 8.5.6H101l9-.1v2l-24 1c43.3 14.3 82.8 11 126-3.2q6.8-1.6 14-1.8zm-18 9 1 2Zm-8 2-1 2 3 1-1-3zm4 0v3h2v-3z"/><path fill="#f9c748" d="M330 155c-3.4 1.1-3.9.9-7-.3a90 90 0 0 0-15-3.7l-1-3c-29-20-77.4-17-110.3-11l-3 .5-7.5 1.3q-12.9 2-25.6 4.7c-44 9-96.5 15.3-138.6-4.5v-2h-3l-1 2-3-6 3.4 1.3c58.1 19.2 122.6 5.9 180.6-7 46.4-10.2 92.4-.4 131 27.7"/><path fill="#0b2d5c" d="m15 92 7.1 7.3a103 103 0 0 0 68.6 30.8h9.5l40.8-.1.4-1.8q1.8-8.3 4.2-16.4l.7-2.4c1.6-5.4 3.8-7.8 8.7-10.5q7.3-3.2 15-.9v1h-12l-.3 2.3q-1.6 7.6-3.8 15l-.8 3.2-2.1 7.5c13.6-.3 26.6-3 40-5.5l16-3c36.5-7 73.8-2.3 107 14.5-4.3 1.4-7-.5-11-2.2l-12.1-5.2a70 70 0 0 0-33.2-2q-7.6.5-15.4.3c-21.8-.5-42.1 4-63.3 8.6-51.7 11-112 21-163 1.5l2 6c-3.1-2.5-4-5.2-5-9v-2h2v3l3.3-.2c3.7.2 3.7.2 5 1.6C29.2 139 42.5 139 50 140l1-2 1 2h2l2.8-.1 2.7-.1c2.5.2 2.5.2 5.5 2.2l1-3 2.4.2 3.3.3 3.2.3c7.5.5 7.5.5 10.1-.8v2c5.7-.9 5.7-.9 8-2l1 2 1.5-1c3.7-1.5 6.6-.7 10.5 0l1-2 2.8.6c3.2.4 3.2.4 6.2-.6a81 81 0 0 1 9 0l-3-3-2 1v-2l-4.4.9-2.4.5c-2.2.6-2.2.6-4.2 2.6l-1-2h-5.7l-3.2.1a49 49 0 0 1-11.9-2.1c-5-1.3-10.1-1.4-15.4-1.6-5.6-.2-5.6-.2-7.8-2.4l-3-1-6.2-3c-5-2.2-9.5-4-14.8-5v-3h-2v-2h-5v-2l-3-1c-1.7-1.4-1.7-1.4-3-3v-2h-3c-1.8-2-1.8-2-3.7-4.5l-1.9-2.5-1.4-2-2 1-1-7zm161 37-2 2h6zm-36 2 3 6-4 1 10-1-3-1v-2l2.3.7 2.7.3 3-3zm23 0-1 3h4v-3zm4 0 1 2 6-1v-1zm-7 0-4 2v2h5l1-3zm-33 2-1 2h2zm2 0v3l3-1h-2zm5 1-1 5h5c1.1-3.7 1.1-3.7 0-6-2 0-2 0-4 1m17 1v1h5v-1zm-25 1 2 1 1 2v-3zm-8 4 4 1Z"/><path fill="#f8fbfc" d="M343.6 117q10.4 1.4 21.2 1h10q19.8.1 39.7.8h2.3q39.2 1.1 78.3 4.3l2.8.2q6.5.6 13.1 1.7l1-2 2.3.5c5 .7 9.8.6 14.7.5v-2a79 79 0 0 1 28 3v2l2.6.8c6 2.1 9.7 4 13.4 9.2l-1 2-2.8-2.7A50 50 0 0 0 554 128l-2.8-1.1c-15.5-4.3-30.8.6-44.6 7.6-2.6 1.5-2.6 1.5-4.2 3.1-3.5 2-6.7 1.4-10.6 1l-2.4-.3-13.6-1.5A2416 2416 0 0 1 425 131l-3.7-.5q-31.2-3.9-62.3-8.4l-3-.4-3-.4-31-4.3c6-4 14.8-1 21.6 0"/><path fill="#f3f7f8" d="M441.9 92.1q.7.8 1.7 1.4l1.8 1.5 2 1.6 1.9 1.5 4.7 3.9c-3.5 1.1-6.4 1-10 .7l-3.5-.3-3.7-.3q-11.3-1.2-22.8-1.1l7 1v1q-14 1.3-28.1 1.6l-3.4.1-3 .1c-2.5.2-2.5.2-4.5 1.2v2h2l2.8.2 3.1.1 24.6 1q16.5.4 32.9 1.7a1142 1142 0 0 0 55 2.4l19.6.6v2l-33.2.1h-7.7q-3-.2-6.1-1.1l-6.4-.3-3.8-.1-4-.2H457q-8-.4-16.3-.4c-3.6 0-3.6 0-4.6-1h-5.7q-10.7 0-21.5-1-16.5-1-33-1.7-11.4-.4-22.8-1.3v-2l-2.3.5c-4.9.7-9.6.3-14.4 0l-5.7-.3-2.5-.2c-2.1 0-2.1 0-4.1 1v-3h-4.9l-2.8.1c-2.3-.1-2.3-.1-3.3-1.1q-4.2 0-8.2.2c-2.9-.2-4.4-.8-6.8-2.2v3h-3v-2l-2.7.1c-3.3-.1-4.5-.7-7.3-2.1-2-.5-2-.5-4.3-.8l-2.5-.3-2.7-.4-2.8-.4q-11-1.4-22-2.4A126 126 0 0 1 234 94v-1c38.4 1.6 38.4 1.6 54.6 4 8.6 1.2 17.2 1.5 25.9 1.7h3l2.8.1c2.7.2 2.7.2 5.5.7q4.7.7 9.4.6h52.1l8.7-.1v2l10-1v-2h3l2-4v3l15-5.2 3.3-1.1 3-1a11 11 0 0 1 9.6 1.4"/><path fill="#0a2351" d="M361 61.8h2.2c11.2 0 22 .5 32.8 3.2l2 .5a230 230 0 0 1 79 39.5l-67-1 4-2v-2a279 279 0 0 1 28.8 1.3l10.2.7-8.9-7.3c-4.8-3.7-4.8-3.7-8.3-3.7q-3.5.8-6.8 2l-2 .7-7.8 2.7c-4.9 1.7-4.9 1.7-8.2.6l7.6-3c.3 0 .3 0 2.1-.8 4.5-1.7 8.5-2.7 13.3-3.2v-2l-2-.2c-4.6-1.2-8.3-3.7-12.1-6.2A86 86 0 0 0 397 72l-3.5-1c-33.3-8.8-72.6-2-105.5 5.6q-4 .8-8 1.3a186 186 0 0 0-33.5 8.2l-2.2.8c-5.2 1.8-5.2 1.8-6.3 4.1l3 2h-5l-1-4q10.3-5.5 21.7-8.7l3.4-1c24.9-7.1 50.3-13 75.9-16.3l2-.3c7.7-1 15.3-1 23-1"/><path fill="#a3b4c7" d="M617 121c3.4 1 6 2 9 4h4l-1 3 3.3 1.8c2.6 1.5 4.9 2.8 6.7 5.2v2l3 1-1 2h5c-1 25-1 25-4 28l-1 6-.6 3.4-.4 2.6h3v2h3v3l10 3-1 4c-11 6.1-27.8 4.2-40 4h-9.9l-2.6-.1a30 30 0 0 0-6.5 1.1l-5-1-3 1-6-1v-7h2l1 3a1223 1223 0 0 0 54.3-.7h3.4q5.2-.5 10.3-1.3l-3 .2a349 349 0 0 1-52-.2v-2h8l-1-3c-2-.7-2-.7-4-1-1.1-3.7-1.1-3.7 0-6h2l.9-1.9c1.1-2.1 1.1-2.1 3.1-4.1h2l2.8-4c2.8-3.9 2.8-3.9 6.6-5h2.6v-2l9 .7c3 .3 3 .3 6 1.3l2-4-1-3h2v-5.3l-.1-2.9c.1-2.8.1-2.8.9-4.9.2-1.9.2-1.9-1.4-4.2-6-5.7-12-10.5-19-15L617 122zm4 48q-1 0-2 .3c-3 1.1-4.2 3-6 5.7-.7 2.8-.7 2.8-1 5h8c5.6-.5 5.6-.5 7.4-2.7.8-3 .4-5.3-.4-8.3-2.5-1.3-3.3-.8-6 0"/><path fill="#8ba2b9" d="m158 99 18 1 1 2c6 2.1 12.7 2.5 19 3v2l3.2.2 4.2.2 2.2.2c5.3.3 5.3.3 6.4 1.4a65 65 0 0 0 9.2 1c9.1.9 9.1.9 12.9 1.5q5.8 1 11.8 1l2.3.2 5.8.3v1l-5 1v1h-2c-16.4.3-32 2-48 5l-21 4q-14 2.5-28 3l2.9-11.1.8-3.2.8-3 .7-3q1.3-4.4 2.8-8.7"/><path fill="#5d7fa5" d="M564.5 143.2A35 35 0 0 1 575 165l1 2q-.6 3.4-1.6 7c-.4 2-.4 2 .6 4-.5 3-.9 3.9-3 6v4l-2.4.8-2.6 1.2-1 3-3 1-1-6 2-1v-5h2l-1-6 3-1-2-1q-1-5-1-10a44 44 0 0 0-4-7v-2l-2 2c-3-4.7-3-4.7-3-7-8.4-2.5-17.4-4.9-26-2l-2-1v2c-8.4 3.3-8.4 3.3-13 4l-1 3-2-1v2l-2.7 2c-4 3-5.3 7-7.1 11.7-1.2 2.3-1.2 2.3-4.2 3.3v4h-3c-2.3-8.9.8-16.7 5.2-24.4q4.3-5.8 9.8-10.6l2-2.1c2-2 3.5-2.7 6-3.7.4 0 .4 0 2.1-.7 1.9-.5 1.9-.5 4.9-.5l1-2a43 43 0 0 1 38.5 9.2M501 166l1 2Zm71 12 1 2Z"/><path fill="#38d4eb" d="M379 177a19 19 0 0 1-9.2.5l-3.2-.4-3.2-.5a373 373 0 0 0-59-2.8c-9.6 0-19 .2-28.4 1.5q-7 .9-14 .7a16 16 0 0 1 9-2.8l3.8-.4 6-.6q22.5-2 45.2-2.2a237 237 0 0 0-43.2-3.2h-8.9c-10.2 0-20.2.3-30.3 1.8q-5.3.6-10.6.4c3.3-2.2 5.3-2.5 9.2-3.1l3.3-.5 2.5-.4c-1-1-1-1-3.5-1.1h-6.1l-2.4.1-1-4c47.5-12.3 98.9 2 144 17"/><path fill="#166aa2" d="m502 193 1-2v2l5-1v-1h5v2l21-1v2l24-2v4h-6v2h-2l-1 2-4.7.5c-3.1.2-5.5.6-8.5 1.6-3.4 1-6.3 1-9.8.9l-2 .5q-3 .7-6.2.5h-2.4l-5-.1c-4.2 0-8 .1-12 1.1-6.8 1.5-13.4 1.2-20.2 1q-11-.2-22 .5-8.6.7-17.4 0c-10.5-.5-10.5-.5-15-.5q-9.5-.1-18.9-1l-3.7-.2q-7.5-.5-14.9-1.4c-3.2-.4-5.2 0-8.3.6l-4-1-3 1-7-1-2 1-2-2c-2.1-.4-2.1-.4-4.6-.6l-2.7-.3h-7.2c-3.5-.1-3.5-.1-5.5-2.1h22l-7.5-.6-9.7-.8-22-2c-9-.8-17.9-.8-26.9-.8h-2.5q-19.2 0-38.2 1.6l-2.3.2c-12.4 1.2-12.4 1.2-14.9 2.4h-11a24 24 0 0 1 8.3-2.8l2.5-.4 2.6-.4 2.5-.3c14.6-2.2 29.4-2.5 44.2-2.6h3.3c27.7-.1 55.1 2.4 82.7 5l2.6.2 12.6 1.1a565 565 0 0 0 54.6 2.5q24.4-.2 49-1.7l3.4-.2q21.4-1.1 42.7-3.4l-3.8-.2-20.5-.9c-21.9-1-21.9-1-31.7-1.9v-1l6.6-.6 3.8-.4c3.7 0 6.2.6 9.6 2"/><path fill="#408ab7" d="m443 48-1 1.8c-1 2.2-1 2.2-2 5.2l2.4-.4 11-2 1.9-.3 27.2-4.4c5.3-.8 5.3-.8 7.5-1.9v-2l4-1v7c-4.2 2.2-8.4 3-13 4l-3.7.8c-10.2 2-10.2 2-15 2.7-3.3.5-3.3.5-6.3 1.5q-9 1.3-18 1l-1-3.4-2-3.6c-3-.8-3-.8-7-1l-5.2-1c-3.1-.7-5.5-1-8.8-1l-1-2h-3.4c-3.6 0-3.6 0-5.6-1h-9.9q-6 .1-12.1-1l-1 2h-2l-1 2a38 38 0 0 0 13 2c4.4-.2 7.8.7 12 2.4 2.4.7 3.7.4 6-.4v3l3-.2c4.4.2 7 1.4 11 3.2l7 1v2h5v2l6 3c-2 1-2 1-3.8.5l-2.3-1-2.5-1-2.8-1.1C403.8 55.2 378.4 53.6 351 53v-1l4-1h-13c5.3-5.3 9.5-6 16.8-7 6-.9 6-.9 8.2-2 24.1-3 52.7-1.3 76 6m-69 2 4 1Z"/><path fill="#0a9ee8" d="M141 67c-2 3-2 3-4.5 3.6l-3.2.4q-7.8 1-15.4 2.6l-3.7.7q-3.6.7-7.2 1.7v2h10v-2l7.7.7c2.3.3 2.3.3 3.3 1.3l3.3.3c4.2.8 5 1.7 7.7 4.7 2.7.8 2.7.8 5 1l-1 5-17.8 2.2q-21 2.8-42.3 3h-3.2C57.2 94 34.4 93.4 13 86l-4-1v-2l10 1 1 2c3 .9 3 .9 6.7 1.6l3.7.8q4.8.7 9.6.6l1 1a145 145 0 0 0 25 1.1h29.4c16 0 16 0 22.6-1.1l1-2 6-1 1-2-3 1-4-2c-2.3-.2-2.3-.2-4.8-.2h-6l-3.2.1-13.7.1-10 .1h-3A50 50 0 0 1 62 82v-4l-6-1v-1l2.9-.1c48.8-2.1 48.8-2.1 65.1-7.9l4-.6c4-.4 4-.4 6.8-1a11 11 0 0 1 6.2.6m-14 18-1 4 4-1h-2zm7 2v1h5v-1z"/><path fill="#18cdc8" d="M237 159c1.8 1.5 1.8 1.5 3 3h-4v2l12-1v3l-2.6.4-3.3.5-3.3.5c-2.8.6-2.8.6-4.8 2.6l-5.3 1.2-3.5.6-3.7.7A329 329 0 0 0 188 181q-16.4 5.1-33.2 8.6l-3.6.8c-5.5 1-10.6 2-16.2 1.6l2-3-12 1c3.5-2.3 6.7-2.9 10.7-3.6l2-.3A235 235 0 0 1 152 184v-2l27-8v-1l-2-1 2-2 2.6 1.1c4 1 5.8.6 9.7-.7l3.6-1.2 2-.7 9.7-3.2 2-.6q7.8-2.4 15.9-4.3l2.1-.4q5.1-1.3 10.4-1"/><path fill="#f6f9fb" d="m378 104 72.8-.3c12.6-.1 24.5.8 36.9 3a233 233 0 0 0 14.7 1.7l18.8 2q6 .6 11.8 1.6v1a86 86 0 0 1-17.4 1.1h-6.2q-31.8 0-63.5-2.3-20.6-1.3-41-2.1l-2.8-.1-5.2-.2q-7.5-.3-14.9-1.4v-2z"/><path fill="#586346" d="M18 140q4.7 4.4 8.6 9.8C39.5 166 61.8 175.4 82 178q7.5.4 15.1.4h2.1c32.2-.1 63.1-9.7 93.6-19a445 445 0 0 1 48.6-12.1c9-1.8 18.2-1.5 27.3-1.4l17.3.1v1l-3.6.1-19.2.8c-15.4.6-29.9 2.3-44.7 6.6l-2.2.6c-13.2 3.8-13.2 3.8-16.2 7L198 166l2 1h-3l-2-2-1 4-4 1-1-4h-7v3l-2.2.1-2.7.3-2.8.2-2.3.4-1 2 2 1h-3v-2l-4.2.4-2.4.2c-2.5.4-4.3 1-6.4 2.4l-1 2-1.7-.6c-3-.5-4.6.2-7.3 1.6l-1 2-2-1-3 2v2c-3-1-3-1-5-3l-2 3v-2l-4 .4c-12 1.3-23.9 2.5-36 .6l-1 2q-9.6-1-19-2.5l-7-1c-4.4-.8-7.8-2.3-11-5.5l-3 1-2-1v-2l-9-3v-4h-2l-1 2-1-3-2.3-.9c-3.3-1.4-4.5-3.3-6.7-6.1l-5-2c-1.8-2.6-2-3.8-2-7h-3v-3l-2-1z"/><path fill="#60807f" d="m15 92 7.1 7.3A103 103 0 0 0 61 124v2c16.1 4.5 31.8 5.6 48.5 5.9h3l11.3.2a90 90 0 0 0 14.4-1c1.8-.1 1.8-.1 3.8 1.6q1.4 3 2 6.3l-16.3 2.2q-21 3-42.2 3h-2.3A188 188 0 0 1 16 134l2 6c-3.1-2.5-4-5.2-5-9v-2h2v3l3.3-.2c3.7.2 3.7.2 5 1.6C29.2 139 42.5 139 50 140l1-2 1 2h2l2.8-.1 2.7-.1c2.5.2 2.5.2 5.5 2.2l1-3 2.4.2 3.3.3 3.2.3c7.5.5 7.5.5 10.1-.8v2c5.7-.9 5.7-.9 8-2l1 2 1.5-1c3.7-1.5 6.6-.7 10.5 0l1-2 2.8.6c3.2.4 3.2.4 6.2-.6a81 81 0 0 1 9 0l-3-3-2 1v-2l-4.4.9-2.4.5c-2.2.6-2.2.6-4.2 2.6l-1-2h-5.7l-3.2.1a49 49 0 0 1-11.9-2.1c-5-1.3-10.1-1.4-15.4-1.6-5.6-.2-5.6-.2-7.8-2.4l-3-1-6.2-3c-5-2.2-9.5-4-14.8-5v-3h-2v-2h-5v-2l-3-1c-1.7-1.4-1.7-1.4-3-3v-2h-3c-1.8-2-1.8-2-3.7-4.5l-1.9-2.5-1.4-2-2 1-1-7zm112 41-1 2h2zm2 0v3l3-1h-2zm5 1-1 5h5c1.1-3.7 1.1-3.7 0-6-2 0-2 0-4 1m-8 2 2 1 1 2v-3zm-8 4 4 1Z"/><path fill="#001838" d="M309 172.8h3c20.7 0 41.5.6 62 4.2v1h-1.8c-34-1.8-34-1.8-38.2 1a88 88 0 0 1-11.7.4H320c-30.4.4-61.8 2.8-90.5 13.5l-2.5.8-2 .9c-1.9.4-1.9.4-4.9-.6l14-5-3-2-4 1h-8c4-2.6 8-3.6 12.4-4.9l2.9-.8c24.6-6.8 49.2-9.5 74.7-9.5"/><path fill="#a3b6c7" d="m284.3 65.4 1.7.6v5q-9 3.4-18 6c-3 1-3 1-4.9 2a50 50 0 0 1-9.8 3.6l-5.8 1.8-2.8 1-2.5.8c-2.2.8-2.2.8-5.2 2.8h-4v3h-3v4c-6.7 1.1-6.7 1.1-9 0v-2l-3.7.1c-3.4 0-5.3-.5-8.3-2.1-2.1.3-2.1.3-5 1l-10 1c4.8-4 10.6-5.8 16.4-8l16.5-6.3 3.5-1.4a58 58 0 0 1 16.7-4.1 30 30 0 0 0 7.2-1.7A80 80 0 0 1 264 70l3.4-1c3.6-1 3.6-1 7.3-1.5 3.3-.5 3.3-.5 5.5-1.6 1.8-.9 1.8-.9 4-.5"/><path fill="#8ca2bb" d="M423.6 83.1a22 22 0 0 0 6.7 3.7L434 88c-3 3.5-6 4.1-10.4 5-4.3 0-6.2-1.5-9.6-4l-3-3 2 .4 2.7.6 2.6.6q3.8.6 7.7.4l-1.6-.4-12.4-4a156 156 0 0 0-53.2-9.7h-3L323 74v-1h8v-2l-1.8.3-8.2 1.2-2.8.4Q310 74.2 302 74c3.3-2 6.3-2.5 10-3l3.7-.5 3.8-.6 3.7-.5c31.4-4.4 73.8-7.7 100.4 13.7"/><path fill="#7febfe" d="M355 11c36.7-.4 36.7-.4 51.8 1.7l12.9 1.4 8.3.9 1-2 1 2 7.3 2.2 2 .6c3.6.9 6.3 1.6 9.7.2l-1-5 3-1 1.6 1.7a59 59 0 0 0 11.6 8.6C467 24 467 24 470 25l5 5a32 32 0 0 0 10 6l3 5 1.7 2.8L491 46a14 14 0 0 1-7 2.9l-2.4.4-2.6.4-2.7.4-8.5 1.5-11.2 1.8-2.5.5L439 56l2-5q4.1 0 8.2.5l2.7.3 2.1.2v-2l2-.1q7-.5 14-1.9a116 116 0 0 1 17-2l-2-2.3c-2-2.7-2-2.7-2-5.7l-1.6-.8L479 36l-2.8-1.3a65 65 0 0 1-8.8-5.6l-2.7-2L457 21l-1.6.9q-4.1 1.9-8.4 3.1l-2 1-5.6-.8-3-.5-2.4-.7-1-2c-2.8-.6-2.8-.6-6.4-1a165 165 0 0 1-15.4-2.6q-3.5-.6-7.2-.4v-2h-2.3l-10.5-.4-3.6-.2q-10.9-.3-21.6-1.4v-1l-11-1z"/><path fill="#798f8f" d="M285 119c9 1.9 18 3.8 26.9 6.6l2 .6q5 1.4 9.1 4.8c-1.3 1.5-1.3 1.5-3 3h-3l3.3 1.8q2.9 1.3 5 3.6 2.3 2.2 5.3 3.6l2 1.1 2 1 2.2 1.2 5.2 2.7v3l-2.2-1c-3.7-1.3-6.9-2-10.8-2l1-2-9-3 2 6a88 88 0 0 1-9.5-4.3c-18.5-9.6-37-16.8-57.5-20.7l1-2h2.4c2.6 0 2.6 0 3.6-1 13.5-1.3 24.3 1 36.8 6.1L310 132l-9.6-3.9-2.8-1q-6.7-2.8-13.6-5.1zm-10 5 1 2 2-1zm4 1 1 2Zm2 1v2l-2 1h3l1-3zm5 2-4 2q6 1.9 12 3v2l3.4 1c3.6 1 3.6 1 4.6 2l6 3c.8-1.7.8-1.7 1-4-2.4-2.7-2.4-2.7-5-5v2h-2v-2l-5.2-2.1-3-1.2c-2.8-.7-2.8-.7-5.2.2L287 130zm24 10-1 4 6 1 1 3 2-1v-5c-3-1.3-4.8-2-8-2"/><path fill="#8ba5b9" d="M441.9 92.1q.7.8 1.7 1.4l1.8 1.5 2 1.6 1.9 1.5 4.7 3.9c-3.5 1.1-6.4 1-10 .7l-3.5-.3-3.7-.3q-11.3-1.2-22.8-1.1l7 1v1a193 193 0 0 1-29.9.9l-18.1-.3c-33-.5-65.6-2-98.4-5.7l-2-.2q-6-.7-11.6-1.7v-1c7.9-.2 15.3.3 23.1 1.4q15 2 30.3 2.3h3.2l2.7.1c2.7.2 2.7.2 5.5.7q4.7.7 9.4.6h52.1l8.7-.1v2l10-1v-2h3l2-4v3l15-5.2 3.3-1.1 3-1a11 11 0 0 1 9.6 1.4"/><path fill="#fcc02f" d="m15 133 3.4 1.3c21 6.9 42.6 8.9 64.5 8.8h6.6q11 0 22-.9 4.5-.4 9.3-.3h3l2.2.1v1l-6.2.7c-1.8.3-1.8.3-2.8 1.3l3 2c-6 6-18.5 4.2-26.4 4.3-24 0-49.6-2-71.6-12.3v-2h-3l-1 2z"/><path fill="#082858" d="M314 133c-4.3 1.4-7-.5-11-2.2l-12.1-5.2a70 70 0 0 0-33.1-2c-6.6.6-13 .4-19.6.3-8.7 0-16.9.1-25.4 1.6-5.7 1-11 1.7-15.8-1.5l-6-1c2.9-2 4.3-2.4 7.6-3l2.7-.5 2.9-.6 2.8-.5A167 167 0 0 1 314 133"/><path fill="#1d6c98" d="M251 155c30-.8 57.3.6 86.3 8.4 4.3 1 8.4.9 12.7.6v3l11.3 3.1 2.4.7 2.2.6 2.1.6 2.1.6c1.9.4 1.9.4 3.9-.6v3l7 1 1-2 4 6-4 1v1h-7l3.5.2 4.4.2 2.3.2c5.7.3 5.7.3 6.8 1.4l8 1 2.4.2q17.2 1.6 34.6 2.8v1a300 300 0 0 1-42.2-2.4q-17.2-1.5-34.6-3.6a425 425 0 0 0-48.7-2.7L298 180v-1l28-1v-1c15.3-1.8 30.5-.9 45.9 0h5.1l-20.5-6a380 380 0 0 0-46.8-11.2l-3-.5a197 197 0 0 0-32.3-2.5h-3.2q-11.8 0-23.4 1.8-5.4.6-10.8.4v-1c4.7-1.2 9.2-1 14-1zm101 25v1h6v-1zm14 1v1h6v-1z"/><path fill="#28c5fc" d="m300 15 6 1a47 47 0 0 1-7 3h3v2l-14 3 2-3q-5 .5-10 2c-2.1 3.1-2.1 3.1-3 6h-5l3 2q-5.6 1.7-11.4 3-5.7 1.3-11.2 3.2l-8 2.3q-4.9 1.2-9.5 3.1a25 25 0 0 1-15.3 1.8c-3.5-.5-5.5.6-8.7 2.1-5.6 2.6-5.6 2.6-8.9 1.5l-6 1c2-2 3.2-2.6 6-3.6l2.5-1 2.8-.9 2.9-1a609 609 0 0 1 54.6-17.6l2.4-.6 2-.6c1.8-.7 1.8-.7 3.3-2.3 1.5-1.4 1.5-1.4 5.1-1.3h2.4c6.8-.3 13.4-2.4 20-4.1z"/><path fill="#2dc8f7" d="M239 69q-7.8 3-15.7 5.6l-2.2.7c-38 12.6-76.8 24-117.1 25.7v-2l1.7-.2 7.7-.7 2.8-.3 2.5-.3 2.4-.2C123 97 123 97 124 96h7l1-1 6.8-.5c2.6-.6 3.5-1.5 5.2-3.5l-5-1a26 26 0 0 1 8.2-3q1.3 0 2.5-.4l2.7-.5L164 84a1495 1495 0 0 0 39.8-7.9q14-2.9 28-6.8c5-1.4 5-1.4 7.2-.3"/><path fill="#26cfd6" d="m305 158 1 3-4 1v2h-3l-15.6.5q-13.3.1-26.4 1.5v1l-8 1-2.3.3q-6.8.8-13.7.7c3.3-2.2 5.3-2.5 9.2-3.1l3.3-.5 2.5-.4c-1-1-1-1-3.5-1.1h-6.1l-2.4.1-1-4c22.7-5.9 46.9-5 70-2"/><path fill="#3288ac" d="M329 195.4q11.7 1.3 23.4 1.9 8.8.6 17.6 1.7v1h-19.2q-13.4.3-26.8-1a513 513 0 0 0-39.2-1.1h-2.4c-18.7 0-18.7 0-25.5 1.6a25 25 0 0 1-6.6.6h-2.5l-1.8-.1-1 2h-6v2l-3.4-.1a55 55 0 0 0-21.2 2.4c-4.7 1.4-11 1.9-15.4-.3l-1 2v-2l-7-1v-1l7-1v2l2-.4c11.6-2.6 23.2-5 35.1-6.2 2.9-.4 2.9-.4 4.9-1.4q7.5-1 15.2-1.6l2.3-.2c23.7-2 48-2.8 71.6.2"/><path fill="#62e0fd" d="m368 9 3-1h3l3-1 3 2c2.6.4 2.6.4 5.7.6l3.4.2 3.5.3 7 .4 3.3.3 8.2.8c3.9.4 3.9.4 7.3.3l2.6.1 2 3q-13.2-.8-26.2-2.3-7.4-.9-14.8-.7v1l-5 1v1h-1.9q-34.9.8-69.3 7.1-6.3 1.2-12.8 1.9l1-2q4-.7 8-1v-2l-8 1c3-2 4.2-2.3 7.7-2.6l2.4-.3 1.9-.1v-2c4-1 7.8-1 12-1v-2l2.6-.1Q340.3 10.6 360 9V8c4.6-1.2 4.6-1.2 8 1"/><path fill="#2b4769" d="M428 79a144 144 0 0 1 35.6 17.3q7 4 13.4 8.7l-67-1 4-2v-2a279 279 0 0 1 28.8 1.3l10.2.7-8.9-7.3c-4.8-3.7-4.8-3.7-8.3-3.7q-3.5.8-6.8 2l-2 .7-7.8 2.7c-4.9 1.7-4.9 1.7-8.2.6l9.7-3.8c4.5-1.7 8.5-2.7 13.3-3.2v-2l-4-1q-1-2.8-1-6z"/><path fill="#137ac0" d="m135 79 4 4c2.8.8 2.8.8 5 1l-1 5-17.8 2.2q-21 2.8-42.3 3h-3.2C57.2 94 34.4 93.4 13 86l-4-1v-2l10 1 1 2a60 60 0 0 0 10.4 2.4q4.8.7 9.6.6l1 1a145 145 0 0 0 25 1.1h29.4c16 0 16 0 22.6-1.1l1-2 6-1-1-5h-1.7l-33.5-.7H86Q78 81 70 80v-1l34.7.1c10.2 0 20.2-2.4 30.3-.1m-8 6-1 4 4-1h-2zm7 2v1h5v-1z"/><path fill="#2c5c80" d="M324 139q6.6 2.1 12.6 5.4c17.1 8.8 35.7 16 54.4 20.6l2.8.7A635 635 0 0 0 446 176l-1 2-2.2-.4c-25-4.1-25-4.1-35.4-3.5-2.4-.1-2.4-.1-5.4-2.1l-7.8-1.5A81 81 0 0 1 380 167l-8.2-2.6-2.1-.7c-3-1-5.5-1.7-8.7-1.7v-2h-3v-2q-4-1.1-8-1.4c-3-.4-5.4-1-8-2.6v-5l-2.6-.8a56 56 0 0 1-9.8-4.8l-3.2-1.8-2.4-1.6z"/><path fill="#89c1d6" d="M494 43v7c-4.2 2.2-8.4 3-13 4l-3.7.8c-10.2 2-10.2 2-15 2.7-3.3.5-3.3.5-6.3 1.5q-9 1.3-18 1l-1-3.4-2-3.6c-3-.8-3-.8-7-1l-5.2-1c-3.1-.7-5.5-1-8.8-1l-1-2h-3.4c-3.6 0-3.6 0-5.6-1h-9.9q-6 .1-12.1-1v-1c50.3-.8 50.3-.8 59 5l-2 2-1 5c18.2-2.7 18.2-2.7 25.4-4.5 9-2.2 18.4-3.3 27.6-4.5v-4c2-1 2-1 3-1"/><path fill="#5290a0" d="m15 92 7.1 7.3A103 103 0 0 0 61 124v2c19 4.5 37.5 6.2 57 7v2l-3.4.4c-3.6.6-3.6.6-5.6 2.6l-1-2h-5.7l-3.2.1a49 49 0 0 1-11.9-2.1c-5-1.3-10.1-1.4-15.4-1.6-5.6-.2-5.6-.2-7.8-2.4l-3-1-6.2-3c-5-2.2-9.5-4-14.8-5v-3h-2v-2h-5v-2l-3-1c-1.7-1.4-1.7-1.4-3-3v-2h-3c-1.8-2-1.8-2-3.7-4.5l-1.9-2.5-1.4-2-2 1-1-7z"/><path fill="#345879" d="M568 134.4a49 49 0 0 1 19 31.6 97 97 0 0 1-1 25l27.3-.5A845 845 0 0 0 654 189l-1 2q-6.7 1.3-13.7 1.3l-3.8.1-6.2.2q-22.1.7-44.3.4l-.5-2.4-1.1-4.8c-.4-1.8-.4-1.8.6-3.8l.1-4v-2.1c-.1-1.9-.1-1.9-1.1-3.9l2-1c-.7-4.7-.7-4.7-3-7l-.2-4c-.9-8.6-6-16.3-12.3-22.1-12.9-9.7-25.9-11-41.5-9.9a68 68 0 0 0-21 8.1l-2 .9-2-1c19.9-13.7 45-16.1 65-1.6m17 43.6 1 2Zm-1 6 1 2Z"/><path fill="#42a09c" d="m80 188 1.6.5q4.2.7 8.5.6H101l9-.1v2l-24 1 19 6v2l2.9.4 3.8.5 3.7.6c3.6.5 3.6.5 5.7 1 4.1.7 8.2.6 12.3.6h2.8l11.6-.1h11.1q7.1-.2 14.1 1v1l-8 1-2.2.2-9 1q-8.3 1.1-16.6 1H130q-3.1-.3-6.1-1.2l-4.5-.5q-3.3-.2-6.4-1-3.9-.8-7.8-1l-3-.3-2.3-.2v-2l-2-1-1 2-1.6-1.2-2.2-1.7-2-1.6q-3-2-6.2-3.5l-3-3c1 1 1 1 2 4-3-1-3-1-4.2-3.4-.8-2.6-.8-2.6.2-4.6"/><path fill="#8aa1b7" d="M567 135.4a50 50 0 0 1 15 19.6v1h-5l-1-6-3-1c-2.5-2-3.6-4.1-5-7l-2-2 1-1h-3c-2-1-2-1-4-4l-2-1v-2l-4.9-.6-2.7-.4H548l-2 2-1-3-2.3.3-3 .3-3.1.3c-2.6.1-2.6.1-4.6-.9l-1 2h-10l-1 5h-3v-2l-4.8 2.3-2.7 1.3a22 22 0 0 0-5.5 4.4h-2v2l-3-1c4.4-7.6 10-10.8 18-14l2.5-1c15.7-5.4 34-3.2 47.4 6.4m5 9.6 1 2Z"/><path fill="#94a5ba" d="m414 170 15.9.8c2.1.2 2.1.2 4 .8 2.9.6 5.2-.1 8.1-.6l8.9-.1h2.5l26.6.1v8c-9.6.3-19-.6-28.5-1.7l-2.3-.3a329 329 0 0 1-35.2-6z"/><path fill="#5d7fa5" d="M558 139c-2 1-2 1-5.1 0l-2.9-1v2h-3v2l-3.3-.1c-14-.5-23 1.9-33.7 11.1l-4 3 .8-1.6q2.2-4.5 4.2-9.4l-2-1a23 23 0 0 1 13-8h3l1-2a42 42 0 0 1 32 5"/><path fill="#60cdeb" d="m450 12 1.4 1q6 4.6 12.2 8.5 5.8 3.6 10.8 8.1c3.3 2.9 6.5 5 10.6 6.4l3 5 1.7 2.8L491 46a14 14 0 0 1-7 2.9l-2.4.4-2.6.4-2.7.4-8.5 1.5-11.2 1.8-2.5.5L439 56l2-5a78 78 0 0 1 13 1v-2l2-.1q7-.5 14-1.9a116 116 0 0 1 17-2l-2-2.3c-2-2.7-2-2.7-2-5.7l-1.6-.8L479 36l-2.8-1.3a65 65 0 0 1-8.8-5.6l-2.7-2L457 21l-1.7 1c-2.8 1.2-4 1-6.9.3l-2.6-.6-2.8-.7-2.7-.6-8-2-2.7-.7L423 16v-1h5l1-2 1 2 7.3 2.2 2 .6c3.6.9 6.3 1.6 9.7.2l-1-5z"/><path fill="#497199" d="M537.6 140.8h2c3.7 0 5.2 0 8.4 2.2l-3-.1c-8.8-.3-17-.2-25 4.1l-1 3-3 2c-1.2 2.1-1.2 2.1-2 4l-2-1v2l-2.7 2c-4 3-5.3 7-7.1 11.7-1.2 2.3-1.2 2.3-4.2 3.3v4h-3c-2.4-9 .9-16.8 5.4-24.5 2.5-3.8 5.2-7.8 9.8-9.1l1.8-.4a30 30 0 0 1-4 10l1.4-1.4a39 39 0 0 1 28.2-11.8M501 166l1 2Z"/><path fill="#5a7a82" d="M285 119a295 295 0 0 1 28.9 7.2q5 1.4 9.1 4.8c-1.3 1.5-1.3 1.5-3 3h-3l3.3 1.8q2.9 1.3 5 3.6 2.3 2.2 5.3 3.6l2 1.1 2 1 2.2 1.2 5.2 2.7v3l-2.2-1c-3.7-1.3-6.9-2-10.8-2l1-2-9-3 2 6c-3-1-4.8-1.8-7-4l3-8-2.5-1.4-2.5-1.6v-2l-2.3-.7-14.4-5.3-2.9-1c-.4-.3-.4-.3-2.7-1.1l-2.5-1c-2.2-.9-2.2-.9-5.2-2.9z"/><path fill="#bfcad5" d="M353 107a2645 2645 0 0 1 91.2 3.7 1190 1190 0 0 0 58.2 2.7l19.6.6v2l-33.2.1h-7.7q-3-.2-6.1-1.1l-6.4-.3-3.8-.1-4-.2H457q-8-.4-16.3-.4c-3.6 0-3.6 0-4.6-1h-5.7q-10.7 0-21.5-1-16.5-1-33-1.7-11.4-.4-22.8-1.3z"/><path fill="#67839f" d="M233 89h2l.1 1.9.9 2.1 6 2 2 2 7.5 1c7.2.7 7.2.7 9.5 3l3 2q-10.5-.8-21-2.5c-13.7-1.8-27.6-1.8-41.4-2L180 98c3-2.3 5-3.5 8.6-4.1l2.7-.5q5.3-.8 10.8-1.2C204 92 204 92 205 91a15 15 0 0 1 9 2l7 1v2l8-1 1-3h3z"/><path fill="#01234d" d="M288 173c60.3-.5 60.3-.5 86 4v1h-1.8c-29.5-1.6-29.5-1.6-40.2-.5q-8.4.7-16.8 1h-3l-21.4.6-2.9.1h-2.6l-2.3.1c-2-.3-2-.3-5-3.3l10-2z"/><path fill="#257eb5" d="m502 193 1-2v2l5-1v-1h5v2l21-1v2l24-2v4h-6v2h-2l-1 2-4.7.5c-3 .2-5.3.5-8 1.5-3.5 1-6.2 1.2-9.8 1.2h-23.1L492 203h-22v-1l3.2-.1q34.5-1.4 68.8-4.9v-1h-1.7l-34.6-1.5h-3q-10.4-.6-20.7-1.5v-1l6.6-.6 3.8-.4c3.7 0 6.2.6 9.6 2"/><path fill="#016dd5" d="m146 107 2 1a546 546 0 0 1-7 22l-9-1v-1l6-1 1-3h-5v-3h-2.9l-22.1-.7h-2q-7-.4-14-1.3v-1h2.3l10-.4h3.6l3.4-.2h3.2c2.5-.4 2.5-.4 4.5-2.4a127 127 0 0 1 12.7-1.5l2.2-.3 9.1-1.2z"/><path fill="#a0b6ca" d="M358.6 66.8h3.4q10.3 0 20.5 1l2.2.3c5 .6 5 .6 7.3 2.9l-2.2-.1-9.7-.5-3.4-.1-3.3-.2-3-.1c-2.4 0-2.4 0-4.4 1l5 1v1l-48 1v-1h8v-2l-1.8.3-8.2 1.2-2.8.4Q310 74.2 302 74c3.3-2 6.3-2.5 10-3l3.7-.5 3.8-.6 3.7-.5q17.6-2.5 35.4-2.6"/><path fill="#7895ae" d="M342.8 74.7h13a163 163 0 0 1 54.9 9q8.5 2.6 17.3 4.3v1c-5.5.2-10.3-.5-15.7-1.9l-2.2-.5c-3.6-.9-6.9-1.7-10.1-3.6l-2-1-1 2-1.5-.4c-2.5-.6-2.5-.6-6.4-1-2.5-.3-4.2-.6-6.5-1.6-6.9-2.6-15-2.1-22.2-2l-21.6.2h-2.5c-7 0-7 0-10.3-2.2a59 59 0 0 1 16.8-2.3"/><path fill="#c8d3dd" d="M441.9 92.1c.2.3.2.3 1.7 1.4l1.8 1.5 2 1.6 1.9 1.5 4.7 3.9c-4 1.4-8 .9-12.1.5l-2.4-.2-17.4-1.4-2.3-.2A20 20 0 0 1 410 98l12.2-4q1.7-.7 3.5-1.2l3.3-1.1 3.1-1c3.9-1 6.4-.6 9.8 1.4"/><path fill="#0d285b" d="M245 117v1l-9 1 12 1 1-2c7.3-.2 14.2 0 21.4 1.6 2.6.4 2.6.4 5.8.3 5 .1 9.2 1.6 14 3.2l2.7 1q10.9 3.7 21.1 8.9c-4.3 1.4-7-.5-11-2.2l-12.1-5.2a70 70 0 0 0-33-2c-7 .6-14 .3-21 0h-4l-3.7-.2h-3.5c-2.7-.4-2.7-.4-4.7-2.4l-4-2c9.4-1.3 18.5-2.3 28-2"/><path fill="#6a8689" d="M183.5 124.9h8.6c4.7 0 9.2.1 13.9 1.1v1l-27 5.7c-24.5 5-24.5 5-35 5.3.8-2 .8-2 2-4 3.6-.7 3.6-.7 7-1l-2.2-.1-2.7-.3-2.8-.2-2.3-.4-1-2h2.9c3.1 0 3.1 0 5.1-1h5.7c10.4-.1 10.4-.1 12.3-2l7.8-.7c3-.4 4.4-1.4 7.7-1.4M176 129l-2 2h6zm-13 2-1 3h4v-3zm4 0 1 2 6-1v-1zm-7 0-4 2v2h5l1-3zm-9 4v1h5v-1z"/><path fill="#61819d" d="M617 121c3.4 1 6 2 9 4h4l-1 3 3.3 1.8c2.6 1.5 4.9 2.8 6.7 5.2v2l3 1-1 2h5c-1 25-1 25-4 28l-1 6-.6 3.4-.4 2.6h3v2h3v3a28 28 0 0 1-9-3v-5.2l-.1-3q.2-3.9 1.1-7.8c.1-3.7.2-6.5-1-10h2v-5.3l-.1-2.9c.1-2.8.1-2.8.9-4.9.2-1.9.2-1.9-1.4-4.2-6-5.7-12-10.5-19-15L617 122z"/><path fill="#829bb2" d="M616.8 163.9h9.9l6.3.1-3 17q-14 1.1-28 1 3.5-5.9 7.6-11.2l1.3-1.7c3.8-5 3.8-5 5.9-5.2m4.2 5.1q-1 0-2 .3c-3 1.1-4.2 3-6 5.7-.7 2.8-.7 2.8-1 5h8c5.6-.5 5.6-.5 7.4-2.7.8-3 .4-5.3-.4-8.3-2.5-1.3-3.3-.8-6 0"/><path fill="#1eb3f3" d="m258 29-12 4 4 1c-1 2.5-1.5 3.7-3.9 5l-2.2.6q-4.5 1.3-8.9 3a25 25 0 0 1-15.4 1.8c-3.5-.5-5.5.6-8.7 2.1-5.6 2.6-5.6 2.6-8.9 1.5l-6 1c2-2 3.2-2.6 6-3.6l2.5-1 2.8-.9 2.8-1 26-9 2-.6 5.6-1.9 3.3-1.1c7.2-2.2 7.2-2.2 11-.9"/><path fill="#688aa5" d="m646 185 10 3-1 4c-11 6.1-27.8 4.2-40 4h-9.9l-2.6-.1a30 30 0 0 0-6.5 1.1l-5-1-3 1-6-1v-7h2l1 3a1223 1223 0 0 0 54.3-.7h3.4q5.2-.5 10.3-1.3l-7-4z"/><path fill="#18c0b4" d="m204 168-4 2 2 1-3 2-1 3q-3.8 1.6-7.8 2.8l-2.2.7c-5.4 1.7-5.4 1.7-8.3.7L178 179l-3-1-1 2-6 1-7.6 2.5c-2.6.5-4 .3-6.4-.5h2v-2l1.7-.5 7.6-2.4 2.6-.8 2.6-.8 2.3-.7a46 46 0 0 0 6.2-2.8l-2-1 2-2 2.5 1.2c4.4 1 7.1 0 11.1-1.6 7.9-3.1 7.9-3.1 11.4-1.6"/><path fill="#54807a" d="M286 147c7.6-.4 14.6 1.2 22 2.9l3.8.8A218 218 0 0 1 329 155l-6-4 2-3v3c4.7 2 4.7 2 7.1 2.3 1.9.7 1.9.7 3.7 3.6l1.2 3.1-1 2q-16.5-2-33-5l2-1v-2h-3l-1-3-15-3zm30 9 4 2 1-2z"/><path fill="#16c7b5" d="M179 179v3l-16 4v2l-10 2-3 .6q-7.4 1.6-15 1.4l2-3-12 1c3.5-2.3 6.7-2.9 10.7-3.6l2-.3A235 235 0 0 1 152 184v-2l2.6.6c4 .5 6.3-.2 10-1.5 10.3-3.4 10.3-3.4 14.4-2.1"/><path fill="#44cef6" d="M344 11v1l-6 1h12v1l-2.6.3-20 2.6-3.6.5-2.8.6-1 2c-1.7.5-1.7.5-4 .8l-2.5.4-2.6.4-2.5.3q-7.7 1.2-15.4 2.1l1-2q4-.7 8-1v-2l-8 1c3-2 4.2-2.3 7.7-2.6l2.4-.3 1.9-.1v-2c4-1 7.8-1 12-1v-2q13-1.1 26-1"/><path fill="#f9ce36" d="M287 135c7.6.2 13.1 2.6 19.8 6l3 1.6q10.5 5.3 20.2 12.4c-3.4 1.1-3.9.9-7-.3a90 90 0 0 0-15-3.7l-1-3a72 72 0 0 0-17.6-6.9c-2.4-1.1-2.4-1.1-3.3-3.2l-.1-1.9z"/><path fill="#285f86" d="m443 48-1 1.8c-1 2.2-1 2.2-2 5.2l2.4-.4 11-2 1.9-.3 27.2-4.4c5.3-.8 5.3-.8 7.5-1.9l1-2 1 4a68 68 0 0 1-15.6 3.4 158 158 0 0 0-17.2 3.2c-7 1.8-14 2.1-21.2 2.4v-5l2-2a178 178 0 0 0-54.8-6.3h-2.3q-11-.1-21.9 1.3c21.1-10.6 60-3.9 82 3"/><path fill="#23466d" d="M428 79c9.3 3 17.9 6.5 26 12l-2 1-3-1c-.4 2.2-.4 2.2 0 5a41 41 0 0 0 7 5l-3 1c-1.6-1-1.6-1-3.3-2.4l-1.9-1.5-3.8-3.3c-4.8-3.8-4.8-3.8-8.2-3.8q-3.5.8-6.8 2l-2 .7-7.8 2.7c-4.9 1.7-4.9 1.7-8.2.6l9.7-3.8c4.5-1.7 8.5-2.7 13.3-3.2v-2l-4-1q-1-2.8-1-6z"/><path fill="#998342" d="M18 140q4.7 4.4 8.6 9.8C36.8 162.5 51.9 169.5 67 175v2l2.3.4 3 .5 3.1.5c2.6.6 2.6.6 4.6 2.6-17.5-.5-17.5-.5-24-7l-3 1-2-1v-2l-9-3v-4h-2l-1 2-1-3-2.3-.9c-3.3-1.4-4.5-3.3-6.7-6.1l-5-2c-1.8-2.6-2-3.8-2-7h-3v-3l-2-1z"/><path fill="#04c8b8" d="m123 190-4 3 2 2-7 2v2l8 1v1q-19.3-.9-37-9v-1c27.2-1.2 27.2-1.2 38-1"/><path fill="#6d8266" d="M13 129h2v3l3.3-.2c3.7.2 3.7.2 5 1.6C29.2 139 42.5 139 50 140l1-2 1 2h2l2.8-.1 2.7-.1c2.5.2 2.5.2 5.5 2.2l1-3 2.4.2 3.3.3 3.2.3c7.5.5 7.5.5 10.1-.8v2c5.8-.9 5.8-.9 8-2l1 4h8v1c-29.1.3-58.4.6-86-10l2 6c-3.1-2.5-4-5.2-5-9z"/><path fill="#f8e22b" d="m15 133 3.4 1.3c21 6.9 42.6 8.9 64.5 8.8h6.6q11 0 22-.9 4.5-.4 9.3-.3h3l2.2.1v1a223 223 0 0 1-38 2.2H68.2q-7.8 0-15.4-1-4.5-.3-9.1 0c-7.4 0-14.2-1-20.8-4.2l-1-3h-3l-1 2z"/><path fill="#2fc9f7" d="M239 69q-8 3-16 5.7l-2.2.7q-20.8 7-41.9 13l-3.2.8-3 .8-2.4.7c-2.5.3-4 0-6.3-.7l8.9-2.5 2.5-.7 2.5-.7 2.2-.6c1.9-.5 1.9-.5 3.9-.5v-2h-5c3.6-2.4 7.1-3.1 11.3-4l2.5-.6 20.8-4.7 12.2-3 2.2-.5 4.2-1.1c4.6-1.2 4.6-1.2 6.8-.1"/><path fill="#1885c7" d="M62 78h8v2h1.8l35.1.7h3.1q7 0 14 1.3l1 3c-3 0-3 0-6-1h-10.7l-27 .2h-3A53 53 0 0 1 62 82z"/><path fill="#7896ad" d="m275 81 3 2-1 2-2-.6a53 53 0 0 0-26 5.6l-3 1.2-2 .8h10v2h7v1c-19.3.3-19.3.3-23.6-3l-1.4-2a63 63 0 0 1 39-9"/><path fill="#2388c3" d="M370 199v1h-19.2q-12.2.3-24.3-.7-6.6-.7-13.1-.9h-2.7q-7.4-.4-14.7-.4-4.5-.1-9-1v-1c27.2-4.1 55.8.2 83 3"/><path fill="#23e0fd" d="M21 89q9.5.6 18.9 2a278 278 0 0 0 33 2c15 .5 29.7-.5 44.6-2l2.1-.1 5.8-.6q5.8-.4 11.6-.3c-3 2.6-4.6 3.3-8.6 3q-7.5-.1-15 1-15.7 1.5-31.7 1.9H79c-19.2.5-39.4 0-57.9-5.9z"/><path fill="#5b7a98" d="m543 142 2.5.1c5.3.3 8.3 1.6 12.5 4.9l-1.8.4-5.2 1.6-4.8-1.5a31 31 0 0 0-16.2.5l-2-1v2c-8.4 3.3-8.4 3.3-13 4l2-3h2l.2-1.9c.8-2.1.8-2.1 3.1-3.4A51 51 0 0 1 543 142"/><path fill="#196ca3" d="M363.7 176.4h2.9l2.7.2h2.5c2.4.4 4 1.2 6.2 2.4h-1.7l-8 .4-2.7.2H363l-2.5.2c-2.5.2-2.5.2-5.3.7q-4.4.7-8.8.5H343l-3.5-.1H336l-38-.9v-1l28-1v-1c12.6-1.5 25-1.1 37.7-.6"/><path fill="#14b5fa" d="M494 194q24-.2 48 1c-2.7 1.5-5 2.3-8 2.6l-2.4.3-2.5.2-2.7.3q-10 .9-20 .8H499c-2-.2-2-.2-5-2.2z"/><path fill="#99acbf" d="M242 95q5 .1 10 .8l3 .2q12.6 1.3 25 4v2h3v5c-7.4-.8-7.4-.8-10.5-2-3.6-1.4-6.7-1.1-10.5-1l-1-2c-4.7-3.1-9-3.4-14.5-3.7C244 98 244 98 241 96z"/><path fill="#000d27" d="M282 173.9h10.4l8.6.1v1l-16 1 1 2h48v1h-2.9c-18.4.3-36.6 1-54.9 3.4q-5.5.8-11.2.6c2-2 2-2 5.6-2.1l3.4.1 1-4h-8c4.7-3.2 9.5-3.1 15-3.1"/><path fill="#20c8fb" d="M158 88v2l2 1c-3.8 3.7-8.3 4.1-13.4 5l-2.7.6A282 282 0 0 1 104 101v-2l1.7-.2 7.7-.7 2.8-.3 2.5-.3 2.4-.2C123 97 123 97 124 96h7l1-1 4.3-.2c4.8-.5 6.5-2.2 9.7-5.8 4-1.3 7.9-1 12-1"/><path fill="#0be7da" d="M326 169a58 58 0 0 1 16 2v3h-2l-27.6-.2c-13 0-25.8 0-38.7 1.8q-5.8.6-11.7.4a16 16 0 0 1 9-2.8l3.8-.4 4-.4 2-.2q22.5-2 45.2-2.2z"/><path fill="#dde5eb" d="M234 93a709 709 0 0 1 48.2 4.2l14.5 1.5 3.2.3 2.8.3c2.9.9 3.7 2.1 5.3 4.7-4 .2-6.6 0-10-2v3h-3v-2l-2.7.1c-3.3-.1-4.5-.7-7.3-2.1-2-.5-2-.5-4.3-.8l-2.5-.3-2.7-.4-2.8-.4q-11-1.4-22-2.4A126 126 0 0 1 234 94z"/><path fill="#bbcbd8" d="m158 99 18 1 1 2c6 2.1 12.7 2.5 19 3v2l15 1 1 4h-7l1-3-2.2-.1q-9.6-.6-19-2.4-9.1-1.7-18.2-2.4l-2.2-.2-5.4.1-2 3z"/><path fill="#7792ae" d="M331 71v2l-5 1v1l-28.1 3.8-2.4.3L281 81a38 38 0 0 1 26.7-8c4.3 0 8.6-.9 12.8-1.6q5.3-.6 10.5-.4"/><path fill="#4881aa" d="M408 173c8.4-.3 16.2.6 24.4 2q3.4.7 7 1.2l3 .5c2.6.3 2.6.3 4.7-.3 2.6-.6 3.6.4 5.9 1.6a107 107 0 0 0 10.7 1.2L482 181v1c-6.8 1.4-13.2.6-20 0l-3.1-.3c-7.4-.6-7.4-.6-9.8-1.2q-4.2-.9-8.3-1c-18.8-1.4-18.8-1.4-25.8-3.5l-1-2h-6z"/><path fill="#a7bbca" d="M576 122a74 74 0 0 1 17.8 4.3q15.6 5.3 29.2 14.7v1c-7 1-11.4-2-17-6l-1.5-1.7c-2-1.7-3.2-1.7-5.8-1.7A19 19 0 0 1 588 128c-2.2-.9-2.2-.9-4-1l-2 2-1-4-3 1z"/><path fill="#e0e8ed" d="M343.6 117q10.5 1.4 21 1a886 886 0 0 1 51.4 1v1l-35 .9c-20.2.6-39.1-.4-59-3.9 6-4 14.8-1 21.6 0"/><path fill="#c6d0da" d="M479 171h1v8q-12.7.2-25.2-1.5l-3.5-.4-8.3-1.1v-1c12.2-1.6 23.7-2.2 36-1z"/><path fill="#4b7392" d="M261 95c7.9-.2 15.3.3 23.1 1.4q15 2 30.3 2.3c8.1.2 8.1.2 11.6.8 4.8.8 9.6.6 14.5.5q13.3-.2 26.5 1v1c-27.5.3-54.6.3-82-3l-3.7-.4L261 96z"/><path fill="#8298b0" d="M233 89h2l.1 1.9.9 2.1 6 2 2 2 7.5 1c7.2.7 7.2.7 9.5 3l3 2q-9-.7-17.8-2-10.4-1.4-21.2-2c1-3 1-3 4-5l1-2h3z"/><path fill="#13acee" d="m193 48 3 2-2 .3-2 .7-1 3c-1.7.6-1.7.6-4 1l-8.6 3c-2.4 1-2.4 1-3.4 2l-3 .4c-3.1.5-5.2 1-8 2.1-4 1.6-7.7 2.1-12 2.5v1c-4 .8-7 1-11 0 4.8-2.7 9.5-4 15-4l1-2 4-1q6.1-1.2 12-3.4c2-.6 2-.6 5-.6l1-3v2l2.3-.9 3-1.1 3-1.1c2.7-.9 2.7-.9 5.7-.9z"/><path fill="#718aa6" d="M414 166.9h17.7l11.3.1v2l17 1v1l-3.6.2-4.8.2-2.5.2q-6.4.3-12.7 1l-3.4.4-1-1-13.7-1.4-2.2-.2c-2.3-.4-4-1.3-6.1-2.4 1-1 1-1 4-1.1"/><path fill="#3688b0" d="m15 92 7.2 7.4C28.5 106 35.4 111 43 116l-1 4-2 1v-3h-2v-2h-5v-2l-3-1c-1.7-1.4-1.7-1.4-3-3v-2h-3c-1.8-2-1.8-2-3.7-4.5l-1.9-2.5-1.4-2-2 1-1-7z"/><path fill="#25cfc8" d="m225 170-1 2c-2 .7-2 .7-4.8 1.2l-3.2.7-3.4.7q-16.4 3.7-32.3 8.8A78 78 0 0 1 160 187c2.6-1.7 4-2.4 6.9-3.1l2.3-.7 2.5-.6 2.5-.6 7.8-2 2.5-.6L198 176l1-4 3.3-.2 4.4-.2 2.2-.2c5.4-.3 10.7-1.6 16.1-1.4"/><path fill="#051434" d="M239.9 115.8h2.3c11.4 0 22.8 0 33.8 3.2l2 2q-14.5-1.3-29-3l-1 3-14-1 2-2-2.5.2q-10.2 1-20.5.8c5.6-5.6 19.3-3.2 26.9-3.2"/><path fill="#4b6f8e" d="m287 77-3 3 2.3-.4 10.2-1.6 3.6-.6Q309 75.8 318 76a25 25 0 0 1-10.5 3l-3.8.5-11.8 1.5-3.5.4q-5.4 1-10.4 2.6v-2h-16l1-2c1.9-.6 1.9-.6 4.3-1.1l2.7-.5 2.8-.6 2.8-.6 2.7-.5 2.4-.5c2.4-.2 4 0 6.3.8"/><path fill="#002145" d="m251 182-1 1h5c-3.8 2-7.6 3-11.7 4.2-2.3.8-2.3.8-5.3 2.8l-7.5 2.7-2 .7c-5.1 1.7-5.1 1.7-8.5.6l14-5-3-2-4 1h-8c7.5-5 16.2-6.4 25-6 3.1-1 4-1 7 0"/><path fill="#ecf1f4" d="M529 122a79 79 0 0 1 28 3v2l2.6.8c6 2.1 9.7 4 13.4 9.2l-1 2-2.8-2.7A50 50 0 0 0 554 128l-2.8-1.1a44 44 0 0 0-12.5-1.2h-2.5c-6 .1-11.4.8-17.2 2.3l-1-4h11z"/><path fill="#6f7048" d="m67 176 11.7 1.5q5.1.7 10.4.6h12.6q13.1 0 26.3-1.1v1l-2.7.9c-3.3 1.1-3.3 1.1-5 2.2a23 23 0 0 1-10 1H108a93 93 0 0 1-14-1.1l-1 2c-6.7-.5-12.6-2-19-4l-4.1-1.2-2.9-.8z"/><path fill="#66777a" d="M272.1 121.8h2.6c5.2 0 9.4.5 14.3 2.2v1h-13l-1 2a74 74 0 0 0 21 5l-2 1v2l2 1q-6.9-1-13.2-3.8A156 156 0 0 0 256 125l1-2h2.4c4.1 0 8.2-1.2 12.7-1.2"/><path fill="#1684c2" d="m9 83 10 1 1 2c3 .9 3 .9 6.7 1.6l3.7.8q4.8.7 9.6.6l1 1a162 162 0 0 0 22.4 1.4L94 92l1 2c-58 .5-58 .5-82-8l-4-1z"/><path fill="#77b5cf" d="M382 45c50.3-.8 50.3-.8 59 5l-3 2v-2h-24l-1-2h-3.4c-3.6 0-3.6 0-5.6-1h-9.9q-6 .1-12.1-1z"/><path fill="#719ab2" d="M475 87a22 22 0 0 1 8.8 3c3.9 2.1 7 2.3 11.4 2h1.8l1 1c8.3 1.4 8.3 1.4 12 0v1l3.6.4 27.6 3.3 2.6.3q7.8.9 15.2 3v1q-11-.9-21.8-2.4l-21-2.4-2-.2-9.9-1c-19-1.7-19-1.7-25.4-5.6l-2.3-1.4-1.6-1z"/><path fill="#0ac4b3" d="M134 183h3l1 2 1.8-.4c4.1-1 8-1.9 12.2-1.6a38 38 0 0 1-10.2 3.6l-3.3.8-2.5.6h1l3 1-5 2v2c-5.7 1.2-11.2 1-17 1v-3l-6-1v-1c14.6-2.3 14.6-2.3 22-2l-1-3z"/><path fill="#0495ef" d="m236 192-2 3 6-1c-2 3-2 3-4.8 3.8-.6 0-.6 0-3.5.6l-3.9.6-24.8 4a27 27 0 0 1 8.4-4.8l2.5-.9 2.5-.9 5.1-1.8 2.4-.8 5-2c2.7-1 4.4-.6 7.1.2"/><path fill="#f86419" d="M183 151c-3.3 1.7-6 2.5-9.7 3-5.2.9-5.2.9-6.3 2l-7.1.9q-10.1 1.3-20.1 3.4-7.9 1.4-15.8 2.3c-3 .4-3 .4-6 1.4h-8v-2l3-.5 14.4-2.2 2.6-.4q18-2.8 35.9-6.4A70 70 0 0 1 183 151"/><path fill="#4fb8e1" d="m368 9 3-1h3l3-1 3 2c2.6.4 2.6.4 5.7.6l3.4.2 3.5.3 7 .4 3.3.3 8.2.8c3.9.4 3.9.4 7.3.3l2.6.1 2 3q-9-.5-18.1-1.5a370 370 0 0 0-44.8-2.2L345 11v-1l15-1V8c4.6-1.2 4.6-1.2 8 1"/><path fill="#2580b3" d="M314 194v1l-3.5.1-4.8.3-2.6.1q-7.5.4-14.9 1.3c-13 1.7-26 1-39.2.2v-1a571 571 0 0 1 65-2"/><path fill="#6988a7" d="m503.1 137.4 1.9.6-1.3 1.7-1.7 2.2-1.7 2.2C499 146 499 146 499 148l-1.9.1-2.1.9-2 6a72 72 0 0 1-6 8h-1a35 35 0 0 1 12.6-24.5c2.4-1.5 2.4-1.5 4.5-1"/><path fill="#a6bbcd" d="M229 111a99 99 0 0 1 9 .6l16 1.4v1l-5 1v1h-2.2c-24.9.8-24.9.8-35 2.6q-4.4.6-8.8.4c3-2 3-2 6.6-2.5l3.4-.5 1-2q3.5-.7 7-1c6.9-.9 6.9-.9 8-2"/><path fill="#7de7f9" d="M483 40c3.4 1.4 5.5 3.3 8 6a14 14 0 0 1-7 2.9l-2.4.4-2.6.4-2.7.4-8.5 1.5-11.2 1.8-2.5.5L439 56l2-5q4.1 0 8.2.5l2.7.3 2.1.2v-2l2-.1q7-.5 14-1.9a116 116 0 0 1 17-2l-2-2.4c-2-2.6-2-2.6-2-3.6"/><path fill="#224468" d="m289 74 2 2-3.4.4q-19.3 2.5-37.8 8.7l-3.2 1c-7.5 2.6-7.5 2.6-8.6 4.9l3 2h-5l-1-4c7.5-4.2 15.1-6.8 23.4-9.1l3.4-1L272 76l3.3-1 3.2-.8 2.9-.8a15 15 0 0 1 7.6.6"/><path fill="#fc940b" d="M285 139c18 4.4 18 4.4 23 10-3.4 1.1-4.9.9-8.3.2l-3.1-.5-3.3-.6-3.3-.6-8-1.5v-1h5z"/><path fill="#006edb" d="m146 107 2 1a546 546 0 0 1-7 22l-9-1v-1l6-1 1-3h-5v-3h-11v-1l19-1 2-5h-7c3-2 3-2 7-2z"/><path fill="#0d518a" d="m135 79 4 4c2.8.8 2.8.8 5 1v3l-3 1v-3l-7-1v-2a43 43 0 0 0-10.1-1.1h-9.6L100 81H86.6q-8.4.2-16.6-1v-1l34.7.1c10.2 0 20.2-2.4 30.3-.1"/><path fill="#33b6eb" d="m300 15 6 1a47 47 0 0 1-7 3h3v2l-14 3 2-3q-5 .5-10 2c-2.1 3.1-2.1 3.1-3 6l-1.7-1c-2.2-1-4-1.5-6.3-2l-4-1 5.2-2.2c1.8-.8 1.8-.8 3.8-2 2-.8 2-.8 5-.7a57 57 0 0 0 13-2.1l2.3-.6L300 16z"/><path fill="#99aec0" d="M558 132c7.6.9 13.3 6.3 18 12 6 9.7 6 9.7 6 12h-5l-1-6-3-1c-2.5-2-3.6-4.1-5-7l-2-2 1-1h-3c-2-1-2-1-4-4l-2-1zm14 13 1 2Z"/><path fill="#7c9eb7" d="m646 185 10 3-1 4c-11 6.1-27.8 4.2-40 4h-9.9l-2.6-.1c-2.5.1-2.5.1-4.7.7l-1.8.4-2-2c2.2-2.2 7.1-1.2 10.2-1.3h2.8l23.3-.5c16.9-.3 16.9-.3 22.7-3.2l-7-4z"/><path fill="#c0cbd7" d="M353 107q33.6.6 67 3v1q-9.9 1.2-19.9.7l-2.7-.1A2393 2393 0 0 1 353 109z"/><path fill="#416381" d="M616.8 163.9h9.9l6.3.1-2 4v-3l-16 1v2h-2l-.7 2.2c-1.4 3-3.2 5.2-5.3 7.8l-1 3 2.5-.4 3.3-.6c.6 0 .6 0 3.3-.6 4.3-.6 8.6-.4 12.9-.4l2-10h1q.2 6.1-1 12-14 1.2-28 1 3.5-5.9 7.6-11.2l1.3-1.7c3.8-5 3.8-5 5.9-5.2"/><path fill="#196dac" d="m502 193 1-2v2l5-1v-1h5v2l21-1v2h16v2q-34-.9-68-3v-1l6.6-.6 3.8-.4c3.7 0 6.2.6 9.6 2"/><path fill="#739683" d="m269 148 11-.1h3c6.4-.1 11.9.5 18 2.1.6 1.9.6 1.9 1 4l-2 2-7-2v-3l-3.6.6c-4 .5-6.7 0-10.4-1.6l-1 3-1.7-1a27 27 0 0 0-7.3-2z"/><path fill="#7792ae" d="m285 119 11 2.4q7 1.5 14 3.6l1 6a59 59 0 0 1-10.3-2.8l-3-1.1-3-1.2-3.1-1.1-7.6-2.8z"/><path fill="#8ba1b9" d="M376.9 69.3h2.2c3.7.3 6.7.7 9.9 2.7l-2 4-17-2v-1l-12-1v-1a53 53 0 0 1 18.9-1.7"/><path fill="#407d9c" d="m490 44 2 1-1 4-2 .3c-22.7 3.5-22.7 3.5-30.1 5.4A101 101 0 0 1 438 57c-.2-2.4-.2-2.4 0-5 2.5-2.3 2.5-2.3 5-4l-1 1.8c-1 2.2-1 2.2-2 5.2l2.4-.4 11-2 1.9-.3 27.2-4.4c5.3-.8 5.3-.8 7.5-1.9z"/><path fill="#f1b11a" d="M303 143c7.6 1.8 7.6 1.8 11 4l2.3.4c3.4.8 5.6 2.3 8.5 4.2l3 1.9 2.2 1.5c-3.4 1.1-3.9.9-7-.3a90 90 0 0 0-15-3.7l-1-3c-2.6-1.7-2.6-1.7-5-3z"/><path fill="#347eae" d="m365 46 1 5h-24a21 21 0 0 1 23-5"/><path fill="#07a9f4" d="m117 76 10 1v1a173 173 0 0 1-35.5 2.2A170 170 0 0 1 70 79v-1c15.6-1.6 31.3-.7 47 0z"/><path fill="#267895" d="m226 186 8 1v3l-14 4v2l-8 2 3-7-2-1a56 56 0 0 1 13-3z"/><path fill="#006cd8" d="M116.2 100.1h2.7l28.1.9c-2 3-2 3-4.2 3.5l-2.7.3-2.6.2c-2.5 0-2.5 0-4.4-.5-3.1-.7-6.1-.6-9.3-.6h-3.9l-2.9.1v-1l-15-1v-1c4.8-1.3 9.4-1 14.2-.9"/><path fill="#3b6083" d="M537.6 140.8h2c3.7 0 5.2 0 8.4 2.2l-3-.1c-8.8-.3-17-.2-25 4.1l-1 3-3 2c-1.2 2.1-1.2 2.1-2 4l-2-1v2l-7 2c3.6-8.5 12.7-13.7 21-17 3.8-1.3 7.6-1.2 11.6-1.2"/><path fill="#52728d" d="M606 131a29 29 0 0 1 12.6 5.4l2 1.2c3.2 1.9 5.9 3.7 8.4 6.4l-22.2.1h-3.6q-4.1 0-8.2-1.1v-1l27-1-16-9z"/><path fill="#688069" d="M13 129h2v3l3.3-.2c3.7.2 3.7.2 5 1.6C29.2 139 42.5 139 50 140l1-2 1 2h10l-1 3a141 141 0 0 1-45-9l2 6c-3.1-2.5-4-5.2-5-9z"/><path fill="#36596f" d="m197 125 9 1v1l-27 5.7c-24.5 5-24.5 5-35 5.3l2-4 2 .2 2.7.3q1.3 0 2.6.3 3.8.3 7.7.2l1-2 5.5-.7c5.9-.7 11.6-2.3 17.4-3.6l3-.6 2.7-.7c2.4-.4 2.4-.4 6.4-.4z"/><path fill="#40d3ef" d="M239 69q-10 3.9-20.2 7.2l-3.2 1.1A54 54 0 0 1 194 80c2.6-2.6 4.7-2.8 8.4-3.6l1.9-.5 14.1-3.1 4-1q6.3-1.5 12.5-3.4c2.1-.4 2.1-.4 4.1.6"/><path fill="#b3c2d2" d="M635 177h1v5l2.1.3a42 42 0 0 1 8.7 3.3l3 1.3 2.2 1.1v1q-5.5 1.2-11.2 1.1H630l-9-.1v-1l15-1z"/><path fill="#5393b2" d="M374 43h16.6c14.3-.2 14.3-.2 21.4 1v1h-30l-1 3h-2l-1 2-4-1z"/><path fill="#50718a" d="M414 100a240 240 0 0 1 26.8 1.3l9.2.7c-3.8 2.6-7.8 2.3-12.3 2.2h-2.4L410 104l4-2z"/><path fill="#5e8eab" d="M391 52c4.4-.4 7.8.9 11.8 2.4 2.5.7 3.8.4 6.2-.4v3l3-.2c4.4.2 7 1.4 11 3.2l7 1v2h5v2l6 3c-2 1-2 1-3.8.5l-2.3-1-2.5-1-2.8-1.1q-11-4.5-22.5-7.3l-2.4-.6q-6.8-1.7-13.7-2.5z"/><path fill="#001a4e" d="m170 91-3 2 2 1v2l4 2-8 .1h-2.3c-5 .1-9-.5-13.7-2.1 2.7-2.7 5-2.8 8.8-3.6l3.7-.8c3-.5 5.5-.7 8.5-.6"/><path fill="#6d8ba6" d="M382 77c8 .4 15.1 2.4 22.8 4.7q6.7 2 13.7 3.7L428 88v1c-5.4.2-10.1-.5-15.4-1.8l-2.3-.6q-6.6-1.5-13-3.8-7.6-2.5-15.3-4.8z"/><path fill="#436c90" d="M565 156c3.2 3.2 3.9 6.8 4.3 11.3A86 86 0 0 1 567 188l-1 5-3 1-1-6 2-1v-5h2l-1-6 3-1-2-1c-.9-4.1-1-7 0-11z"/><path fill="#1daaa8" d="M237 159c1.8 1.5 1.8 1.5 3 3h-4v2l-2-1h-3l-5-1v3l-5.3 1-3 .7c-2.7.3-2.7.3-5.7-.7h-2l-1 2-5-1c3-2 5-2.7 8.6-3.5l3.3-.8 3.5-.8 3.4-.9c10-2.3 10-2.3 14.2-2"/><path fill="#89ebfd" d="M426 17c9 .5 17.4 3.3 26 6l-1.8.4c-2.2.6-2.2.6-5.2 2.6-2.7-.2-2.7-.2-5.6-.7l-3-.6-2.4-.7-1-2h-3v-3z"/><path fill="#447b89" d="m324 148 1 3a21 21 0 0 0 7.1 2.3c1.9.7 1.9.7 3.7 3.6l1.2 3.1-1 2-16-2c0-3 0-3 1-4l8-1-6-4z"/><path fill="#25dfe8" d="M273.5 155.8h3.2q12.7 0 25.3 2.2c-3.7 2.4-5.7 2.2-10 2l-1-1-8.2-.3h-2.5L254 158v-1q9.8-1.3 19.5-1.2"/><path fill="#2c5471" d="m198 123-1 2h-3.2q-14.4.6-28.5 3.6A61 61 0 0 1 150 130v-2l2.3-.3 10.4-1.6 3.6-.5q10-1.4 20-3.3c4.1-.5 7.7 0 11.7.7"/><path fill="#8a9889" d="M278 124c4.8-.1 4.8-.1 7 1l4.1.4c4.7.4 8.5 1.8 12.9 3.6v3q-4.7-.6-9.2-2.1c-2.8-.9-2.8-.9-5.8.1-4.7-.7-4.7-.7-6-2l-7-1 4-1zm1 1 1 2Z"/><path fill="#17dbfb" d="M21 89q9.5.6 18.9 2a181 181 0 0 0 28 1.6l2.1.4 2 3a163 163 0 0 1-33-2.4q-9.2-1-18-3.6z"/><path fill="#1c8fcf" d="M62 78h8v4h2.8l21.2-.2h4c3 .2 3 .2 5 2.2l-25 .2h-2c-5 0-9.2-.9-14-2.2z"/><path fill="#143660" d="M419 75c5.3-.5 8.3.9 12.9 3.5l1.8 1L438 82l-2 1-5-2c-1.1 3.8-1.1 3.8 0 6-3-.8-3-.8-6-2l-1-3c-3-1.7-3-1.7-6-3z"/><path fill="#34999f" d="m170 203.5 3 .5v1a131 131 0 0 1-39 1l-2-2 12.5-.5 3.6-.1c17-.7 17-.7 21.9.1"/><path fill="#0c214e" d="M403 68c5.3.5 9.6 1.8 14.4 4l2 1 4.6 2-3 1-2-1-1 4 2.8.8c3 1.1 4.3 1.8 6.2 4.2-3.9-.6-6.5-1.7-9.7-3.8A94 94 0 0 0 403 73c3.7-1.2 4.7-.6 8.2 1l2.7 1 2.1 1v-3l-2-.3q-5.6-1.5-11-3.7z"/><path fill="#397473" d="m80 188 1.6.5q4.2.7 8.5.6H101l9-.1v2l-24 1 19 6v1c-18.4-2-18.4-2-23-7 1 1 1 1 2 4-3-1-3-1-4.2-3.4-.8-2.6-.8-2.6.2-4.6"/><path fill="#d3dbe2" d="M486.1 113h2.5l2.5.1 30.9.9v2h-43l-1-2c2.8-.8 5.2-1.1 8.1-1"/><path fill="#dee5eb" d="M313 103c10-.2 20 .4 30 1v2h7l-1 2-2-.1-9.4-.5-3.2-.1-3.2-.2-2.9-.1c-2.3 0-2.3 0-4.3 1v-3h-10z"/><path fill="#f7d948" d="M260 126c11.6.6 23.9 4.2 34 10-2.7 1.3-4.2.7-7 0l-1 2 2 1-8-1q.6-3.1 2-6l-2.5-.4q-6-1.1-11.9-2.7l-2.2-.5-5.4-1.4z"/><path fill="#116bb0" d="m129 81 5 1v2l7 1v3l2 1-17 1 2-2c-.4-2.1-.4-2.1-1-4h2zm5 6v1h5v-1z"/><path fill="#2f8ec3" d="M252.6 196.9h8.4l7 .1v1l-1.8.2-2.4.2-2.4.3c-2.4.3-2.4.3-4.4.8q-3.4.7-6.7.6h-2.5l-1.8-.1-1 2h-6v2h-10l-1-2 3.9-.8 5-1.1 2.5-.6 2.5-.5 2.2-.5c6.2-1.6 6.2-1.6 8.5-1.6"/><path fill="#03c7c1" d="M326 169a58 58 0 0 1 16 2v3h-10v-1l-36-1v-1l30-1z"/><path fill="#64e3f8" d="m413 40 1 1 5.1.9 3.2.5 6.6 1A52 52 0 0 1 445 48c-2.9 1.4-4.6.5-7.7-.3a211 211 0 0 0-26.6-4.4L401 42v-1q5.9-1.4 12-1"/><path fill="#587a96" d="M617 121c3.4 1 6 2 9 4h4l-1 3 3.3 1.8c2.6 1.5 4.9 2.8 6.7 5.2v2l3 1c1 3 1.1 5 1 8.2v4.8h-1v-1.8c-1-8.6-5.5-12.9-12-18.2q-5.2-3.9-10.5-7.3L617 122z"/><path fill="#b3c1d2" d="m621 161 9 .7c3 .3 3 .3 6 1.3l2-2c1.6 5 .3 9.1-1 14h-1l-1-8-3 9a23 23 0 0 1 0-11l-10-1z"/><path fill="#2284bf" d="m381 174 5 5-4 2v1h-10.3q-7 .2-13.7-1v-2h1.7l15.1.2c2.5-.2 4-1 6.2-2.2z"/><path fill="#187abf" d="M438 188h23v1h4.4l2.5-.1c2.1.1 2.1.1 3.1 1.1l5.6.6 3 .2 2.4.2v1a387 387 0 0 1-44-2z"/><path fill="#024f8a" d="M342 177v3h-44v-1l28-1v-1l5.2-.6 3-.3c2.7-.1 5 .2 7.8.9"/><path fill="#617d9d" d="M483 157h2l-.6 2-.8 2.8-.8 2.6-1.8 6.6h-13.1q-7 .3-13.9-1v-1h2.2l9.7-.3h3.4l3.3-.2h3l2.4-.5c2.4-3.5 3.7-7 5-11"/><path fill="#88a1b5" d="m642 140 4 1-.4 5.2-.2 3c-.4 2.8-1.2 5.1-2.4 7.8l-2-2-1 5-3-3 2-1-.1-2.3v-3l-.2-3.1.3-2.6 3-2z"/><path fill="#9ab2c3" d="M358 100h24l-1 2a56 56 0 0 1-13.8 1.1H365l-23-.1v-1l16-1z"/><path fill="#79b2c8" d="M494 43v7c-8.2 4.6-19 3.1-28 3 3-1.7 5.6-2.4 9-2.9q1.5 0 2.8-.3l3-.4 3-.4 7.2-1v-4c2-1 2-1 3-1"/><path fill="#97aac0" d="M590 162c.2 8.9.3 17.3-2 26h2v2h-3c-1.4-4.8-1.2-9.6-1.2-14.6l-.1-2.9v-5.3c.3-2.3 1.5-5.2 4.3-5.2"/><path fill="#42626c" d="m106 138 5 1v1h18v1a186 186 0 0 1-35 2c3.4-4 3.4-4 6.1-4.2l5.9 1.2z"/><path fill="#09224d" d="m217.3 119 2.3.2 5.4.8-2 2 1 2-11 1 1-4h-12c4.3-4.3 9.8-2.9 15.3-2"/><path fill="#67829e" d="m232 98 11.3-.1h3.2l3-.1h3c2.6.2 4.2.9 6.5 2.2l5 2v1c-10.7-.7-21.4-2.4-32-4z"/><path fill="#06325f" d="M245 117v1l-9 1 10 1v1l-12.2.7-3.6.2-3.3.2-3.2.1c-3.1-.2-4.4-1-6.7-3.2 9.4-1.3 18.5-2.3 28-2"/><path fill="#abbccb" d="M258 97a179 179 0 0 1 22 3v2h3v3q-12.6-2.7-25-7z"/><path fill="#0d8cd4" d="m173 58-6 2v2l-2.5.6-3.3.8-3.3.8q-3 .8-5.9 1.8c-4 .9-7 1-11 0 4.8-2.7 9.5-4 15-4l1-2c2-.6 2-.6 4.4-1 9-1.8 9-1.8 11.6-1"/><path fill="#63775c" d="m201 159 1 2-1.4 1.4C199 164 199 164 198 166l2 1h-3l-1.2-1.5c-3-2.4-6.2-1.8-9.8-1.5l-8 1a37 37 0 0 1 23-6"/><path fill="#48859d" d="M43 117a148 148 0 0 1 15.6 6l2.4 1v3c-5-.4-8.7-1.6-13.1-4q-2.9-1.4-5.9-2z"/><path fill="#08d4c4" d="m153 184 1 2a18 18 0 0 1-7.6 2.5c-3.4.5-3.4.5-6.4 2.5l-3-1v-1l-12 1c3.5-2.4 6.8-2.9 11-3.6 7.7-1.3 7.7-1.3 10.3-2q3.4-.7 6.7-.4"/><path fill="#0d4c69" d="M238 184v6l-7.3 2.6-2.1.7c-5.3 1.8-5.3 1.8-8.6.7l14-5-3-2-4 1h-8c6.2-4.1 11.8-4.3 19-4"/><path fill="#bdceda" d="M576 122c7 .6 13.4 2.9 20 5v3h2l-1 2a32 32 0 0 1-10.4-4.2l-1.6-.8-3 2-1-4-3 1z"/><path fill="#859bb3" d="M420 169h13.6q7.4-.3 14.4 1v1l-7.4 1-2.2.4-5.4.6-1-1-6.6-.6-3.6-.2-2.8-.2z"/><path fill="#748faa" d="M309 126c5.4.5 9.2 1.2 14 4-1.1 2-1.1 2-3 4-3.4.5-5.3.4-8.3-1.2-2-2.2-2.4-3.8-2.7-6.8"/><path fill="#7492aa" d="M246 86c-.9 4.9-.9 4.9-2 6h10v2h7v1c-19.3.3-19.3.3-23.6-3l-1.4-2 3.9-2 2.2-1.1c1.9-.9 1.9-.9 3.9-.9"/><path fill="#10547d" d="m212 199-6 3 2.6-.7c6.3-1.5 12-2.7 18.4-2.3v1c-20 4.4-20 4.4-29 5 1-3 1-3 3.2-4.2l2.7-1 2.7-1.1c2.4-.7 2.4-.7 5.4.3"/><path fill="#1299d8" d="M93 76v1q-11.8 1.2-23.6 1.2h-9.1C58 78 58 78 56 76q18.6-1.4 37 0"/><path fill="#3da7ab" d="M120 205c7.2 0 14.3 0 21.5.8q6.8.5 13.5.2a16 16 0 0 1-9.3 2.2h-9.4c-6.1 0-10.8-.3-16.3-3.2"/><path fill="#628898" d="m326 141 16 8v3l-2.2-1c-3.7-1.3-6.9-2-10.8-2l1-2-5-1z"/><path fill="#90aabe" d="M217 86c-3.8 4.5-6.2 5.5-12 6l-3.7 1.1c-3.3.9-4.2.8-7.3-.1l5.7-2.4 3.2-1.3L206 88l2.7-1.2c2.8-1 5.3-1 8.3-.8"/><path fill="#c8d5df" d="M598 148h5c-1.4 2.8-3.3 3.6-6 5h-2v2l-5 1c1.9-4.7 1.9-4.7 3-7l5 1zm-13 6c2.4.8 2.4.8 5 2 .8 2.1.8 2.1 1 4h-3l-1 2c-1.3-3-2-4.8-2-8"/><path fill="#012c60" d="m228 72 5 1-2 2 1 2c-1.8 2.3-2.8 3-5.7 3.5l-3 .2-3 .2-2.3.1v-2l-2-1c4-1.8 7.6-3.3 12-4z"/><path fill="#268a9e" d="M215 191c-.6 2.3-.6 2.3-2 5q-3.4 1.8-7 3v-2l-8-1c2.3-2.3 3.7-2.7 6.8-3.6l2.6-.8q3.8-.8 7.6-.6m-7 4 1 2Z"/><path fill="#3ddbef" d="M356 171a77 77 0 0 1 17.7 4.3l5.3 1.7c-3.2 1-5.6 1-9 .4l-2.8-.4-3-.4-3-.5-7.2-1.1z"/><path fill="#7d916b" d="M194 164v5l-4 1-1-4h-7v3l-8 1 1-4a49 49 0 0 1 19-2"/><path fill="#1db6fc" d="M158 88v2l2 1c-1.6 1.6-1.6 1.6-4 3-3.7-.3-3.7-.3-7-1v-2c-2 1-2 1-3 3l-5 1c4.3-5.7 4.3-5.7 7.4-6.9q4.8-.2 9.6-.1"/><path fill="#86a2ba" d="m411 86 2 .4q7.5 1.6 15 2.6l1-3 5 2c-3 3.5-6 4.1-10.4 5-4.3 0-6.2-1.5-9.6-4z"/><path fill="#8d8f5c" d="M127 176h14v6c-3-1-3-1-5-3l-2 3v-2l-11 1v-3l4-1z"/><path fill="#4980a3" d="m385 51.4 3.4 1c.5 0 .5 0 2.6.6v1l-40-1v-1l3.9-.2 5.1-.2 2.5-.2q6-.2 11.7-1c4-.4 6.9 0 10.8 1"/><path fill="#557491" d="m501 137 4 1-1.3 1.7-1.7 2.2-1.7 2.2C499 146 499 146 499 148l-5 1c-.8-1.7-.8-1.7-1-4 2.3-2.6 2.3-2.6 5-5l1.6-1.9z"/><path fill="#11bbf7" d="M180 69v1l-12.2 2.6-3.5.7-3.3.7-3.1.7c-3 .3-5 0-7.9-.7v-1l4.9-1 2.7-.7c2.4-.3 2.4-.3 4.4.7v-2l2-.2 2.8-.2 2.7-.3c7.7-1 7.7-1 10.5-.3"/><path fill="#00214a" d="m297.4 175.4 3.4.2 8.2.4v1h-17v2l-5.3.2h-3c-2.7-.2-2.7-.2-4.6-1.7L278 176c6.5-1.3 12.8-.9 19.4-.6"/><path fill="#017de6" d="M134 121h9q-.6 4.6-2 9l-9-1v-1l6-1 1-3h-5z"/><path fill="#f2f6f8" d="m595 143 32 1v1h-22v2h-8z"/><path fill="#657d9a" d="M449 134q10.3-.2 20.4.9l2.6.2 2.6.3 2.3.2c2.3.4 4 1.3 6.1 2.4l-13-.4h-3.8c-6-.3-11.5-.5-17.2-2.6z"/><path fill="#9fb5c9" d="m398 71.3 3.3.8c2.7.9 2.7.9 4.7 2.9l-12-1-1 2 2 1c-5.7.1-5.7.1-8-1 .8-2.4.8-2.4 2-5 3.7-1.2 5.4-.6 9 .3"/><path fill="#071742" d="M383 64c6.8-.4 12.5 1 19 3v1l-14-1 3 2-4.7.1-2.7.1A13 13 0 0 1 377 67h8v-2z"/><path fill="#1bbefa" d="m245 52 2 1c-2.7 2.7-5.4 3-9 4v1l-8.4 1.6-2.4.4c-6 1.1-6 1.1-8.2 0v-2q8-1.1 16-1v-2l2-.4 2.4-.5 2.5-.6C244 53 244 53 245 52"/><path fill="#7c9ab2" d="m278 82-1 3-2-.6a29 29 0 0 0-10.6 1l-2 .4q-4.3.9-8.4 2.2l-3-1c8.2-4 18-7 27-5"/><path fill="#0e2754" d="M321 68c-2 3-2 3-4.4 3.6-5.7.5-10.2.5-15.6-1.6v-1c7-1.8 12.9-2.1 20-1"/><path fill="#e3edf2" d="M337 57h-4.3l-2.4-.1c-2.3.1-2.3.1-5.3 1.1q-6 1.2-12 2l1-4c17.5-2.7 17.5-2.7 23 1"/><path fill="#85eafa" d="M483 40c3.4 1.4 5.5 3.3 8 6-7 4.6-16.9 4.3-25 4v-1q10.4-2.4 21-3l-2-2.4c-2-2.6-2-2.6-2-3.6"/><path fill="#557493" d="M545 143c5.7-.5 8.5.5 13 4l-1.8.4-5.2 1.6-7-2z"/><path fill="#607c7d" d="M179 125h18v2l-10 2.3c-3 .7-3 .7-5 .7v-4z"/><path fill="#3be4fc" d="m187 81-1 2h6c-3.4 3.4-8.3 4-12.9 5.2l-3 .9-3 .8-2.7.7c-2.5.4-4 .2-6.4-.6l8.9-2.5 2.5-.7 2.5-.7 2.2-.6c1.9-.5 1.9-.5 3.9-.5v-2h-5c3.2-2.2 4.3-2.2 8-2"/><path fill="#436e70" d="M308 151c6.8.4 12.7 1.6 19 4v1h-14v-2h-3v-2z"/><path fill="#507d98" d="m342 149 10 3.6 3 1.4 1 3 2 1-1.5-.4q-3.2-.7-6.5-1c-3-.4-5.4-1-8-2.6z"/><path fill="#f5d016" d="m15 133 3.8 1.3q8.5 2.8 17.2 4.7v1l-4.7.6-2.7.4c-2.8 0-4.2-.6-6.6-2v-2h-3l-1 2z"/><path fill="#617e8a" d="M152.2 128.9h7.8l3 .1-3 3h-2l-1 2c-1 1-1 1-3.6 1H151l2-2-2.2-.1-2.7-.3-2.8-.2-2.3-.4-1-2h3c3.5 0 3.5-1 7.2-1.1"/><path fill="#012569" d="M145 98c-6.1 4-14.4 3.1-21.5 3H114v-1a153 153 0 0 1 31-2"/><path fill="#17b2e6" d="m11 85 11 3-2 2-3-1 1.6 2.4L20 94l-1 2-1-1.4c-2.8-2.3-5.5-2.3-9-2.6l1-1.8c1-2.2 1-2.2 1-5.2"/><path fill="#e7edf0" d="M435 90c5.2 0 8.5 3.4 12.3 6.6l2 1.5 4.7 3.9c-4.4 1.2-7.5.7-12 0v-1l5-1a26 26 0 0 0-14-8z"/><path fill="#96cce1" d="m464 56-1 2c-1.8.4-1.8.4-4.1.6q-4.3.3-8.4 1-6.2.6-12.5.4v-2c8.7-1.2 17.2-2.4 26-2"/><path fill="#4c7496" d="M572 172c3 6 3 6 2.7 8-.7 2-.7 2-2.7 4v4l-4 2c-1.4-3.7-.6-6 .9-9.6l1-2.8 1.1-2.6zm0 6 1 2Z"/><path fill="#c2cbd7" d="m414 170 8.7.4h2.5c4.3.3 7.8.7 11.8 2.6l5 1v1c-6.4.2-12.2-.6-18.5-2l-2.8-.6-6.7-1.4z"/><path fill="#3be3f2" d="M309 160c13.6.8 13.6.8 20 3v1h-19z"/><path fill="#f5b009" d="M282 145c7-.2 13.2.6 20 2l1-2 5 3-1 2-25-4z"/><path fill="#51828f" d="M98 132h32c-3 3-6 3-10 4v-2l-22-1z"/><path fill="#b49046" d="m59 174 21 6a25 25 0 0 1-22-4z"/><path fill="#abbaca" d="M608 148h24c-3.6 3.6-9.1 2.9-14 3q-5.5-.3-11-1z"/><path fill="#cfd8e1" d="m629 143 2 4c-1 1-1 1-2.8 1.1h-9.9l-6.3-.1v-2l2.4-.1 3.3-.3 3.2-.2a26 26 0 0 0 8.1-2.4"/><path fill="#0055b9" d="M137 114h7c-.9 4.9-.9 4.9-2 6h-8v-3h3z"/><path fill="#7897b1" d="M326 78v2h-3l-2 2c-1.9.2-1.9.2-4.1 0-10.5-.2-10.5-.2-14.9 2l-5-1c4-2.5 8-2.6 12.6-3 5.5-.6 10.8-2.2 16.4-2"/><path fill="#012d6a" d="m146 78-4 1v5c-2.5-.4-3.9-1-5.9-2.5-2.6-1.9-4.9-2.1-8.1-2.5v-1c6-1.5 11.9-.6 18 0"/><path fill="#788159" d="m178 166-3 1-4 5 2 1h-3v-2l-9 1 1-2 6-1v-2c6.3-2.4 6.3-2.4 10-1"/><path fill="#839f85" d="M269 148h19l-2 1-1 3-6-2-1 3-1.7-1a27 27 0 0 0-7.3-2z"/><path fill="#7e97af" d="m515 133-4 2v3l-1.8.8c-2.2 1.2-2.2 1.2-3.8 2.8L504 143h-2v2l-3-1c3-4.7 9.4-14.3 16-11"/><path fill="#08a9f6" d="M143 73h4l1 3-6.6 1-3.8.6q-4.7.6-9.6.4v-2a47 47 0 0 1 14-2z"/><path fill="#03174a" d="m231 71 4 1 1 2 9-1c-2.3 2.3-4.3 3-7.4 4.2l-2.9 1c-2.8.8-4 .8-6.7-.2l2-2v-3z"/><path fill="#001444" d="M206 65c-1.6 2-1.6 2-4 4-3.4.2-3.4.2-7 0l-2.5.5q-4.7.8-9.5.5c2.8-2.8 6-3 9.8-3.6l2.2-.4q5.4-1.2 11-1"/><path fill="#2e8ab9" d="M248 197c-2.2 2.2-3 2.4-6 3l-2.4.5-2.5.6-5 1-2.1.5c-2 .4-2 .4-5 1.4l-3-2 3.4-.8 4.5-1.1 2.2-.6c10.5-2.6 10.5-2.6 15.9-2.5"/><path fill="#3b78a3" d="M558 192v4h-6v2h-10c3.2-2.2 4.3-2.2 8-2v-2l-2-1q5-1 10-1"/><path fill="#d1d8e3" d="M652 188v1q-5.5 1.2-11.2 1.1H630l-9-.1v-1l12.1-1 3.5-.4 3.3-.3 3.1-.2q4.6 0 9 .9"/><path fill="#39847c" d="M134 183h3l1 2 1.8-.4c4.1-1 8-1.9 12.2-1.6-9.5 5.2-20.4 5.6-31 6v-1c4.4-1.1 8.5-1 13-1l-1-3z"/><path fill="#8c9364" d="m158 171 2 2-3 1-1 2-1.7-.6c-3-.5-4.6.2-7.3 1.6l-1 2-5-1 1-3 5.7-1.5 6.7-1.7z"/><path fill="#f6a409" d="M18 136c1.9.3 1.9.3 4 1 2.5 3.7 3 6.7 4 11h3l-1 3c-4.6-3.2-7.6-7-10-12z"/><path fill="#566d69" d="M271 127a72 72 0 0 1 15.6 3.3q4.6 1.3 9.4 1.7l-2 1v2l2 1q-7.3-1-14.2-4l-2.1-.7a41 41 0 0 1-8.7-4.3"/><path fill="#0f3b68" d="M401 69a49 49 0 0 1 15 4l1 3-2 1c-2-.8-2-.8-4.3-2a16 16 0 0 0-9.7-2z"/><path fill="#d48614" d="m282 140 4 1 1 4c-3.4.8-6.4 1.1-9.9 1.1H269l-6.9-.1v-1h18v-2h2z"/><path fill="#d2dde6" d="M196 106c20.5-.3 20.5-.3 23.8 2.5l1.2 1.5h-4.4l-2.5.1c-2.1-.1-2.1-.1-3.1-1.1a220 220 0 0 0-15-2z"/><path fill="#b9cada" d="M407 75c7.4 2 15.2 6 21 11v2l-7-1v-1.8c-1.5-3.4-4.4-4.4-7.6-6l-1.8-1L407 76z"/><path fill="#4e8eab" d="M442 48c0 3.1-.5 4.4-2 7l3.2-.5 4.2-.6 2-.4 5.6-.5 2 2-6.1 1c-.6 0-.6 0-3.5.6q-4.7.6-9.4.4c-.2-2.2-.2-2.2 0-5 2-2.3 2-2.3 4-4"/><path fill="#6e93ad" d="m646 185 10 3-1 4c-3.7 2.1-7 2.2-11.3 2.1h-3.3l-2.4-.1v-1l2-.1c8.8-.8 8.8-.8 13-2.9l-7-4z"/><path fill="#294c67" d="m198 123-1 2-23 1c7-4.7 16-4.3 24-3"/><path fill="#dde5ea" d="M305 100c1.8 2 1.8 2 3 4-4 .2-6.6 0-10-2v3h-3v-2h-6l1-2c2.1-.4 2.1-.4 4.8-.6l2.6-.3c5.3-.3 5.3-.3 7.6-.1"/><path fill="#7b99b0" d="M386.4 100h9.6v2l4 1h-25v-1l3.4-.4c3.9-.6 4.1-1.6 8-1.7"/><path fill="#42afe0" d="m368 9 3-1 1 3h-27v-1l15-1V8c4.6-1.2 4.6-1.2 8 1"/><path fill="#2480ba" d="M534 199v2c-3.6 1.2-6.4 1.1-10.2 1H517l1-2c5.3-1.3 10.6-1.1 16-1"/><path fill="#9fb0c3" d="M449 172v3q-4.5 1-9 1c-2.6-2-2.6-2-4-4 4.6-1 8.3-.8 13 0"/><path fill="#01bdb6" d="m326 169 1 2-8.4.1h-2.4l-6.2-.1-2-2c6.2-.8 11.8-1.2 18 0"/><path fill="#456889" d="M565 156c4 4 4.1 8.5 4.1 13.9l-.1 5.1-3-1c-.7-4-1-7 0-11z"/><path fill="#58706a" d="m302 135 1 3c2 1.1 2 1.1 4.3 2.1l2.4 1q3 1.2 6.3 1.9v3q-7-2.2-13.4-5.6l-2-1-4.6-2.4z"/><path fill="#cddde6" d="M287 64v2l-2-.2c-3 .2-3 .2-6.5 1.8-3.5 1.4-3.5 1.4-6.4.6L270 67c5.2-3 11.1-4.8 17-3"/><path fill="#339fa8" d="m190 199-1 4q-7 1.4-14 2l-1-2 9.9-3.1c3.1-.9 3.1-.9 6.1-.9"/><path fill="#4f8d9d" d="M332 154h2l3 6-1 2-7-1-1-4 3-1z"/><path fill="#8ea4b8" d="M574 145c3.5 1.4 4.7 2.7 6.3 6l1 2.2c.7 1.8.7 1.8.7 2.8h-5l-1-6-3-1z"/><path fill="#7291ab" d="m293 81-2 2h-3l-1 2c-2.3.4-2.3.4-5 .6l-2.8.3-2.2.1c3.8-5.8 9.7-5.2 16-5"/><path fill="#b5c1cf" d="m229 111 25 2v1h-27z"/><path fill="#021140" d="M229 74c-14.8 6.6-14.8 6.6-21 6 1-2 1-2 4.5-3.3l4.3-1.4 2.2-.7c3.8-1.2 6.2-1.8 10-.6"/><path fill="#3fe0fa" d="m210 76 1 2c-4 1.9-7 2.2-11.3 2.1h-3.3L194 80c4.3-4.3 10.2-4.2 16-4"/><path fill="#f3f8f9" d="m319 63 5 1c-3.7 3.7-10.1 3.8-15.3 4.1L304 68c2.6-2.6 4.4-2.5 8-3 5.9-.9 5.9-.9 7-2"/><path fill="#ecd41a" d="M318 148c4.7 2.1 8.6 4 12 8q-5.2-1-10.3-2.6l-2.7-.8-2-.6 3-2z"/><path fill="#5a97a6" d="m65.7 127 2.4.5 1.9.5 1 4h-6l-1-2-3-1-3-2c3.3-1.1 4.4-.9 7.7 0"/><path fill="#657d9b" d="m377 125 8.3.4h2.3c7.1.4 7.1.4 10.4 2.6l-9.9.2c-4.1 0-7.3-.3-11.1-2.2z"/><path fill="#eff4f7" d="M563 118c6.1 1.2 9.5 3.7 14 8l-3 1-2-2-6-1-1-3-2-1z"/><path fill="#7b95b1" d="M300 77v1l-7.8 1.6-2.2.4c-5.7 1.1-5.7 1.1-9 0 6.4-4.8 11.3-4.2 19-3"/><path fill="#899e77" d="m66 139 2.4.2 3.3.3 3.2.3c7.5.5 7.5.5 10.1-.8v2l2 1H65z"/><path fill="#5f9198" d="M95 134h23v1l-3.4.4c-3.6.6-3.6.6-5.6 2.6l-1-2H96z"/><path fill="#b7c6d4" d="m193 107 18 1 1 4h-7l1-3-13-1z"/><path fill="#5db6db" d="M473 30q3.4 1.6 6.6 3.6C482 35 482 35 485 36l3 5 2 3a57 57 0 0 1-7-4v-2l-1.6-.7A46 46 0 0 1 473 31z"/><path fill="#2ebdf1" d="m278 23 1 2-3 4-3-2-4-1-4-1c4.5-1.8 8.2-2.2 13-2"/><path fill="#002248" d="m263 176 12 1-1 4h-8v-3z"/><path fill="#0dddd3" d="m216 166-2 2h-4v-2c2.5-1.2 3.4-.8 6 0m-7 1 1 2-4.7 1-2.7.7c-2.6.3-4.2.1-6.6-.7 8.4-3.4 8.4-3.4 13-3"/><path fill="#b0c2d2" d="m285 119 6 1v2l6 1v2l2 1q-7.6-1.4-15-4z"/><path fill="#24bafc" d="M184 83v2l-4.2 1.6-2.4.8c-2.6.6-4 .4-6.4-.4v-2l4.3-1 2.3-.6c2.4-.4 2.4-.4 6.4-.4"/><path fill="#79dff5" d="m461 23 2.3 1c2.7 1 2.7 1 6.7 1 1.7 2 1.7 2 3.3 4.5l1.5 2.5 1.2 2a56 56 0 0 1-9.7-6l-3-2.2L461 24z"/><path fill="#1d93d8" d="m422.8 203.3 2 .1q2.7.2 5.2.6l1 2q-10.6.3-21-1v-1c4.3-1.1 8.4-1 12.8-.7"/><path fill="#758ea6" d="m615 166 3 1-2.2 2.6q-1.5 1.6-2.8 3.3-.8.7-1.4 1.7c-3.6 4.2-3.6 4.2-3.6 6.4h-2a22 22 0 0 1 4-8.7l1.5-2.5 1.5-1.8h2z"/><path fill="#18c5f8" d="M64.1 92.7h3.2l2.7.3 2 3h-6.2l-3.5.1q-4.2 0-8.3-1.1c3.4-2 6.2-2.3 10.1-2.3"/><path fill="#0c7ac3" d="m141 67-2 3-2.4-.6c-4-.4-6.7.2-10.4 1.1a30 30 0 0 1-8.2.5c4.2-2 7.3-3.2 12-3.7 2-.3 2-.3 4.8-1 2.4-.3 3.9 0 6.2.7"/><path fill="#0e9adf" d="m173 58-6 2v2l-4.2 1-2.4.7c-2.5.3-4 0-6.4-.7l6-1v-2l4.3-1.6 2.3-.8c2.6-.6 4-.4 6.4.4"/><path fill="#176db1" d="m474.4 190 2.3.2 5.3.8v1l-9.2.1H470l-2.6.1h-2.3c-2.5-.2-4-1-6.2-2.2 5.4-1 10-.9 15.4 0"/><path fill="#4a7091" d="M487 153c1.6 3.2.3 6.2-.4 9.5-1.6 7.3-1.6 7.3-1.6 9.5h-3c3.3-17.3 3.3-17.3 5-19"/><path fill="#8ec9e1" d="m433.2 49.4 2.7.3 2.1.3v8l-1.2-1.9c-3.3-4-6.8-4.4-11.8-5.1 3.5-2.3 4.2-2.1 8.2-1.6"/><path fill="#3ca79a" d="m178 170 3.1 1c3.9 1 6.1 1 9.9 0l-4 2v2l-6 1 1-3h-5z"/><path fill="#466b8b" d="M567 148c4.4 4 6.8 7.3 7.2 13.3l-.2 9.7h-1l-.3-2.6A47 47 0 0 0 567 150z"/><path fill="#afbfcf" d="M641 143h1c.3 6-.7 11.2-2 17l-3-3 2-1v-2.3l-.1-3-.1-3.1c.2-2.6.2-2.6 2.2-4.6"/><path fill="#668ba5" d="M617 121c3.4 1 6 2 9 4h4l-1 3 3 3c-3.9-1.4-7-3.2-10.3-5.6l-2.7-1.8-2-1.6z"/><path fill="#082a59" d="M331.3 66h4.7l-2 3c-2.6.5-2.6.5-5.6.7l-3 .2-2.4.1-1-3c3.2-1 6-1.1 9.3-1"/><path fill="#1274be" d="m502 193 1-2 1 3q-11 .1-22-1v-1l6.6-.6 3.8-.4c3.7 0 6.2.6 9.6 2"/><path fill="#3c6991" d="M502 162c1.6 3.1.6 5.6-.2 9-.8 2-.8 2-3.4 3.6l-2.4.4c2.9-9.6 2.9-9.6 6-13"/><path fill="#446773" d="m161 133 1 3-5.6 1-3.2.6q-4.5.6-9.2.4l2-4 2 .2 2.7.3 2.6.3q3.8.3 7.7.2z"/><path fill="#92a8bb" d="M558 132c4 .6 6.7 1.8 10 4l-1 2-5 1-.9-2c-1.1-2-1.1-2-3.1-3z"/><path fill="#66859c" d="m566 118 8 1v2l2 1 3 5a20 20 0 0 1-9-6l-4-2z"/><path fill="#6f97af" d="M475 87c3.4.4 6 1.4 9 3 3.3 1.8 6.2 2.6 10 3v1c-7.4 1-12.7-2.5-19-6z"/><path fill="#f1f8f9" d="M345.3 53h4.7c-1.6 1.9-2.5 2.9-5 3.4h-2l-2-.1c-2-.3-2-.3-5-2.3 3.2-1 6-1.1 9.3-1"/><path fill="#1dbcfe" d="M275 30a63 63 0 0 1-8.6 3.7l-2.3.8c-2.1.5-2.1.5-5.1-.5l4-1v-2c4.3-2.2 7.3-2 12-1"/><path fill="#1b6b91" d="m212 199-7 3 3 2-10 1c1-3 1-3 3.2-4.2l2.7-1 2.7-1.1c2.4-.7 2.4-.7 5.4.3"/><path fill="#5d9f95" d="m90 195 8 3v2l2 1h-2l-1 2-8-6z"/><path fill="#87a3be" d="M297 124c6.6.8 6.6.8 10 3v2l4 2q-4.7-.7-9.2-2.4l-2.1-.7c-1.7-.9-1.7-.9-2.7-3.9"/><path fill="#09b5fb" d="m28 104 2.3 1.4c2.7 1.6 2.7 1.6 5 2.1l1.7.5 1 3 5 4c-4-.6-6.6-2.6-9.7-5l-3-2-2.3-2z"/><path fill="#1973b2" d="M130 84h3.8l2.2-.1c2 .1 2 .1 5 1.1v2h-11z"/><path fill="#0edede" d="M254 158v1l-6.2.7c-1.8.3-1.8.3-2.8 1.3h-10c4.5-4.5 13-3.1 19-3"/><path fill="#6986a1" d="M554 147c4.9 1.9 4.9 1.9 6 3v7c-2-2-2-2-3-4.6l-1-2.4-3-1z"/><path fill="#7c947b" d="m106 138 5 1c-1.1 1.5-1.1 1.5-3 3-3 .3-3 .3-6.2.2h-3.3L96 142l2-3 8 1z"/><path fill="#577d85" d="M135 131c2.3-.2 2.3-.2 5 0 2 2 3 3.1 3 6h-4l-1-4-4 1z"/><path fill="#eff3f6" d="m585 121 9 1v2l2.4.4c2.6.6 2.6.6 4.6 2.6a66 66 0 0 1-16-5z"/><path fill="#189ee1" d="m193 48 3 2-2 .3-2 .7-1 3-8 1-1-2 6-2.3c2-.7 2-.7 5-.7z"/><path fill="#5dc4e7" d="M455 17c5 1.6 8.9 4.7 13 8-3.6 0-5.8-.5-9-2-2.4-3.1-2.4-3.1-4-6"/><path fill="#c8d2dd" d="M434 110v1l-1.9.2-2.5.2-2.4.3c-2.2.3-2.2.3-4.2 1.3q-2.9 0-5.6-.4l-3-.3-2.4-.3v-1c7.3-1.2 14.6-1 22-1"/><path fill="#3295c2" d="M15 92c2.8 1.7 3.9 2.5 4.8 5.7l.2 2.3h-4c-1.4-2.4-2-3.5-1.6-6.2z"/><path fill="#8199b2" d="M394 73q4 .3 8 1l-2 1v2l-6 1-1-4z"/><path fill="#6fe2fa" d="m442 50 6 2-1 3-8 1c1.9-4.9 1.9-4.9 3-6"/><path fill="#80c2dc" d="M494 43v7c-2.4 1.4-3.5 2-6.2 1.6L486 51l2.5-1.2L491 48v-4c2-1 2-1 3-1"/><path fill="#507ca4" d="M499 164c1 2 1 2 .4 4l-1.8 4.8c-.6 2.2-.6 2.2.4 5.2h-3l-1-6h2l.4-2.3c.6-2.7.6-2.7 2.6-5.7"/><path fill="#17cada" d="M334 171h8v3h-10l2-1z"/><path fill="#99acc1" d="m621 161 12 1 1 2h-12z"/><path fill="#f59907" d="M29 152c3.4.3 4.2 1.2 6.5 3.8l1.3 1.6q2.5 3 5.2 5.6a27 27 0 0 1-12-8z"/><path fill="#96aaba" d="m614 136 9 5v1h-7l-2-2z"/><path fill="#fbcb2a" d="M28 140h11l-1 4-3.9-.9-2.2-.5C30 142 30 142 28 140"/><path fill="#f0f5f7" d="m600 114 6.6 2.1q3.3 1.3 6.4 2.9v2l-10-3v-2h-3z"/><path fill="#4e7594" d="M243 92h11v2h7v1q-9.5.3-19-1z"/><path fill="#7b99b1" d="m428 86 6 2c-1.4 2-2.5 2.9-5 3.4l-6 .6v-3h5z"/><path fill="#728ea5" d="M269 82v1l-5.2 1-3 .6c-2.8.4-2.8.4-6.8.4v-2c5.3-2.3 9.4-2 15-1"/><path fill="#1accfc" d="M180 69v1a58 58 0 0 1-16 2c5-3.3 10.2-4.8 16-3"/><path fill="#6c9a90" d="m293 151 9 1-2 4-7-2z"/><path fill="#849596" d="M294 127c5.8.9 5.8.9 8 2v3c-5.7-.9-5.7-.9-8-2z"/><path fill="#092e5d" d="m143 126 1 2 5 1v1a88 88 0 0 1-17 1v-1h9l1-3z"/><path fill="#748d8b" d="M182 126v4h-5v-1l-7-1v-1q6-1.2 12-1"/><path fill="#e8eff4" d="m420 97-2 1 8 1v1l-5.7.1-3.3.1a13 13 0 0 1-7-2.2c6.6-2.1 6.6-2.1 10-1"/><path fill="#f8fafb" d="M340 62a15 15 0 0 1-9.2 2.1H328l-2-.1c5.3-4 7.6-4.5 14-2"/><path fill="#6ee1fe" d="M404 16h14l-2 1v2l-12-1z"/><path fill="#0693f2" d="m261 190 4 4-17 1c2.8-2.8 5.1-2.4 9-2.7 2-.3 2-.3 4-2.3"/><path fill="#899eb6" d="m606 172 2 3-4 4.5c-1 1.5-1 1.5-1 3.5l-3-1 1-4h2l1-1.9z"/><path fill="#0dc1c5" d="m332 169 2 1v2h-12c4.2-3.2 5-3.4 10-3"/><path fill="#6985a3" d="M394 164h12v3l-4.9-.4-2.7-.2c-2.4-.4-2.4-.4-4.4-2.4"/><path fill="#78987c" d="m187.8 163.9 6.2.1v5l-4 1-1-4-4-1c1-1 1-1 2.8-1.1"/><path fill="#7b91a9" d="M485 138h13v3l-4-1-1 2v-2l-8-1z"/><path fill="#0494f4" d="M126 128v2l2 1c-10.6.2-10.6.2-15-1v-1l5.4-.5 3-.3z"/><path fill="#b3c2d1" d="m275 99 5 1v2h3v3c-2.9-.2-2.9-.2-6-1-1.4-2.6-1.4-2.6-2-5"/><path fill="#7b96b1" d="m326 69 14 1-1 2q-4 .7-8 1v-2l-5-1z"/><path fill="#5c9dc3" d="M374 45h8l-1 3h-2l-1 2-4-1z"/><path fill="#1a99dc" d="M210 45c-2.3 2-2.3 2-5 4l-3-1-6 1c2.2-2.2 3.6-2.7 6.4-3.7l2.4-.8c2.2-.5 2.2-.5 5.2.5"/><path fill="#2d8b97" d="M196 197a28 28 0 0 1-14 4l-2-2 5.8-1.6 3.2-.8c2.8-.6 4.3-.6 7 .4"/><path fill="#c5cdd7" d="M479 171h1v8h-12v-1l9-1z"/><path fill="#1faba3" d="m180 176-1 2h-4l-1 2v-2h-5c4.2-2.8 6.2-3.2 11-2"/><path fill="#a0afc0" d="m465 173 13 1v2l-4.2.2h-2.4c-2.4-.2-2.4-.2-6.4-3.2"/><path fill="#61809e" d="m545 143-1 3-9 1-1-2a25 25 0 0 1 11-2"/><path fill="#8c9eb3" d="M473 137h14l-1 3c-4.8.2-8.5-.2-13-2z"/><path fill="#c3d6e1" d="M258 114c4.7-.3 7.2.3 11 3-3.8 1.4-7 .7-11 0z"/><path fill="#9db0c5" d="m614 162 4 1-2.2 1.6c-3 2.6-4.8 5.1-6.8 8.4l-1-2z"/><path fill="#f9bc24" d="M303 143c8.7 1.9 8.7 1.9 11 5-4.7-.9-4.7-.9-7-2l-5-1z"/><path fill="#f0cf35" d="M294 136c5.8 1.9 5.8 1.9 8 3v2l-9-1z"/><path fill="#889eb1" d="m551 128 9 3v1c-7.7.1-7.7.1-10-1z"/><path fill="#014ba7" d="m142 116 1 3c-1 1-1 1-2.8 1.1l-6.2-.1v-2z"/><path fill="#3e9fc7" d="M19 100a24 24 0 0 1 9 8h-4c-5-5.2-5-5.2-5-8"/><path fill="#17bef7" d="M197 63h6l1 2-11 2v-3l4 1z"/><path fill="#17befb" d="m202 47 1 2-3.8 2-2.2 1.2c-2 .8-2 .8-5-.2a25 25 0 0 1 10-5"/><path fill="#1ba89b" d="m112 189 6.4-.1 3.6-.1c3 .2 3 .2 5 2.2-1 1-1 1-3.6 1H121v-1l-9-1z"/><path fill="#1d728c" d="m226 186 8 1v3h-4v-2l-3 1z"/><path fill="#3082b4" d="m381 174 5 5c-3 1-5 1-8 1l1-3h2z"/><path fill="#5f82a2" d="m489 154 2 4-5 5c.6-6.2.6-6.2 1-8z"/><path fill="#f3a811" d="m302 145 6 3-1 2-8-1 1-2h2z"/><path fill="#027ae5" d="M120 115c2-.3 2-.3 4.1-.2l3.9.2c-1 1.5-1 1.5-3 3-3.7.2-3.7.2-7 0z"/><path fill="#2284b9" d="m9 83 10 1 1 4-10-2z"/><path fill="#022968" d="m195.2 76.4 2.7.3 2.1.3a11 11 0 0 1-8.7 1.6l-2.5-.3-1.8-.3c3.5-2.3 4.2-2.1 8.2-1.6"/><path fill="#001341" d="m162 74-1 3-10-1c4.2-2.1 6.4-2.2 11-2"/><path fill="#6795b2" d="M407 54h2v3h7v3l-11-3z"/><path fill="#2980b0" d="M248 197c-3 3-5.8 2.6-10 3v-2c3.2-1.6 6.4-1 10-1"/><path fill="#000f2c" d="M249 180c-2.9 2.9-4.7 3-8.7 3H237c3.5-3.5 7.2-3.1 12-3"/><path fill="#738daa" d="m347 147 8 4v2l-9-3z"/><path fill="#f8c131" d="M296 140c4.6.4 7.6.9 11 4-5.4.4-5.4.4-8 0-2-2-2-2-3-4"/><path fill="#829cb3" d="m590 135 2 4h5v3c-3.2-.4-4.6-.6-6.8-3l-1.2-2z"/><path fill="#3e7f9e" d="M43 117c5.8 1.8 5.8 1.8 8 4h-9z"/><path fill="#2ed1fa" d="M160 89h5v3l-10 1c3-2 3-2 5-2z"/><path fill="#0d2b57" d="m404 68-2 4h-5l-1-2h2v-2c3.8-1.1 3.8-1.1 6 0"/><path fill="#6f86a1" d="m449 134 4.8-.2h2.6c3 .3 4.4 1.2 6.6 3.2-5.2.2-9.1-.4-14-2z"/><path fill="#f1d141" d="M182 132c-2 2.5-3 3-6.2 3.7l-2.8.3-1-3q5-1.2 10-1"/><path fill="#92a6b9" d="M520 129h6v3h-7z"/><path fill="#afc0cc" d="M576 122c4 .5 7.5.9 11 3h-2.8c-3.2 0-3.2 0-6.2 1z"/><path fill="#0f315d" d="M254 120h3v2h6v1l-11 1 2-1z"/><path fill="#f2f7f8" d="M570 116c3.4.3 3.4.3 7 1l2 3-8-1z"/><path fill="#bdcad5" d="M554 115q6 .8 12 2l-1 2c-7.5-.6-7.5-.6-10-2.6z"/><path fill="#21c8fb" d="M257 52v2c-6.6 1.3-6.6 1.3-10-1 6.6-2.1 6.6-2.1 10-1"/><path fill="#61c5e7" d="m450 12 5 5-4-1-1 4c-2-3-2-3-2-7z"/><path fill="#26c7fe" d="M339.3 16.9h2.7l2 .1v1a23 23 0 0 1-14 1 15 15 0 0 1 9.3-2.1"/><path fill="#7496af" d="M597.5 193.9h6.1l2.4.1v1l-2.7.4c-3.3.6-3.3.6-5.5 1.3l-1.8.3-2-2c1-1 1-1 3.5-1.1"/><path fill="#84a083" d="m80 188 4 2-3 3 3 1v2c-3-1-3-1-4.2-3.4-.8-2.6-.8-2.6.2-4.6"/><path fill="#848959" d="m194 159 3 1v2a19 19 0 0 1-10 2q3.4-2.2 7-4z"/><path fill="#6789a3" d="M581 129h4c2.3 3 2.3 3 4 6l-1 2-3.5-3.4-2-2C581 130 581 130 581 129"/><path fill="#a8bacc" d="m423 83 5 3v2l-7-1-1-2z"/><path fill="#97aac1" d="m412 82 3.9-.2h2.2l1.9.2 2 3c-1.6.7-1.6.7-4 1-3.2-1.4-3.2-1.4-6-3z"/><path fill="#143862" d="M284 73c4.8.8 4.8.8 7 3-3.3.8-4.7 1.1-8 0z"/><path fill="#0698f6" d="M365 195h9l-3 1v2h-5z"/><path fill="#49799c" d="M562 188h5l-1 5-3 1z"/><path fill="#5386a5" d="m342 151 8 3v2q-4-.7-8-2z"/><path fill="#fd9708" d="m34 143 6.8 1.4c2.2.6 2.2.6 4.2 2.6-4.7 0-6.8-1-11-3z"/><path fill="#facc34" d="M44 144a31 31 0 0 1 12 2v1c-8.6.3-8.6.3-12-2z"/><path fill="#858d5d" d="M13 129h2l3 11a16 16 0 0 1-5-9z"/><path fill="#c5d2dd" d="m290 101 8 1v3h-3v-2h-6z"/><path fill="#8ca0b7" d="M237 94c2.4.3 2.4.3 5 1l2 3c-5.7.1-5.7.1-8-1z"/><path fill="#698ba5" d="M239 88c2 1 2 1 4 4l-1 2c-2.5-1.2-4-2-6-4z"/><path fill="#031b4e" d="m229 74-9 3-2-2c6.5-2.1 6.5-2.1 11-1"/><path fill="#113260" d="m311 67 10 1-2 3c-4-.6-5-1-8-4"/><path fill="#f6f9fa" d="m326 55 3.8-.1 2.2-.1c2 .2 2 .2 5 2.2h-12z"/><path fill="#206291" d="M350 47v3l-8 1c3.5-4 3.5-4 8-4"/><path fill="#3fa1a1" d="M113 202c4.8.8 4.8.8 7 3-4.7 1.1-4.7 1.1-7 0z"/><path fill="#b0bfcf" d="M597 157h5c-2 3-2 3-4.6 3.7l-2.4.3z"/><path fill="#6886a3" d="m562 156 3 1c.6 2.4.6 2.4 1 5l-2 2c-1.3-3-2-4.8-2-8"/><path fill="#fc8a04" d="M57 149h10v3l-10-2z"/><path fill="#3f6383" d="m492 146 2 3-5 4c0-3.5.8-4.4 3-7"/><path fill="#284560" d="m197 125 9 1v1l-11 1 2-1z"/><path fill="#abc" d="M206 109h5l1 3h-7z"/><path fill="#02a6fb" d="m117 76 10 1v1l-9 1z"/><path fill="#94a8bf" d="m392 70 1 2-2 1v3h-4c.8-2.4.8-2.4 2-5z"/><path fill="#6d9e82" d="m145 180 4 1-2 2-3-1z"/><path fill="#77a091" d="m269 151 1 2 4 1h-7l2-1z"/><path fill="#75987d" d="M100 188h7v1h-7z"/><path fill="#6b9986" d="m199 164 4 1h-4z"/><path fill="#50c4f1" d="M311 12h6v1h-6z"/><path fill="#8ea6be" d="m565 143 3 1-1 2z"/><path fill="#cbdde7" d="M545 97h5v1h-5z"/><path fill="#97b1c6" d="M282 95h5v1h-5z"/><path fill="#1897e0" d="M110 89h5v1h-5z"/><path fill="#7e9979" d="m93 188 4 1Z"/><path fill="#208cd1" d="m384 181 3 1h-3z"/><path fill="#6f9985" d="m195 166 2 2-3-1z"/><path fill="#719b87" d="m238 155 2 2-3-1z"/><path fill="#849f82" d="m242 154 3 2h-3z"/><path fill="#a99f61" d="M15 139v3Z"/><path fill="#7e9484" d="m311 140 3 1-3 1z"/><path fill="#1995dd" d="m95 72 4 1Z"/><path fill="#9dc3d8" d="m401 53 4 1Z"/><path fill="#4ec3f0" d="m308 12 2 2-3-1z"/><path fill="#288ccd" d="m472 189 3 1Z"/><path fill="#268acb" d="m462 188 3 1Z"/><path fill="#839e81" d="m88 188 3 1Z"/><path fill="#2592d7" d="m413 185 3 1Z"/><path fill="#487ca4" d="m498 174 2 1-2 1z"/><path fill="#8ba582" d="m29 133 1 2-2-1z"/><path fill="#8e9b84" d="m296 133 2 1-2 1z"/><path fill="#c7d8e3" d="m576 103 3 1Z"/><path fill="#cadae5" d="m568 101 3 1Z"/><path fill="#cbdbe3" d="m562 100 3 1Z"/><path fill="#cedfea" d="m537 96 3 1Z"/><path fill="#d1e1ec" d="m520 93 1 2-2-1z"/><path fill="#cddfe9" d="m514 93 3 1Z"/><path fill="#389ecb" d="m10 88 1 2-2-1z"/><path fill="#d1e3ef" d="m484 86 2 2h-2z"/><path fill="#39b8f2" d="m241 30 3 1Z"/><path fill="#7ed7f4" d="M436 15h2l-1 2z"/><path fill="#7bd6f4" d="m424 13 3 1Z"/><path fill="#2f86c4" d="m517 191 2 1Z"/><path fill="#4885af" d="m549 189 2 1Z"/><path fill="#2691d5" d="m410 184 2 1Z"/><path fill="#6188aa" d="m572 183 2 1Z"/><path fill="#729f85" d="m141 183 2 1Z"/><path fill="#699e83" d="m151 180 2 1Z"/><path fill="#749b7f" d="m142 180 2 1Z"/><path fill="#70a08c" d="m229 158 2 1Z"/><path fill="#6d9c94" d="m278 153 2 1Z"/><path fill="#76a090" d="m264 153 2 1Z"/><path fill="#b9c8d6" d="m599 140 2 1Z"/><path fill="#7b95ae" d="m511 140 2 1Z"/><path fill="#91a27f" d="m52 139 2 1Z"/><path fill="#92a9bf" d="m558 137 2 1Z"/><path fill="#71968d" d="m116 137 2 1Z"/><path fill="#6e9690" d="m114 136 2 1Z"/><path fill="#599eb8" d="m46 123 2 1Z"/><path fill="#c0d2de" d="m598 110 2 1Z"/><path fill="#9fb5c8" d="m290 96 2 1Z"/><path fill="#d7e6ee" d="m528 95 2 1Z"/><path fill="#8da6bb" d="m264 93 2 1Z"/><path fill="#cedfe8" d="m505 92 2 1Z"/><path fill="#8da5bb" d="m418 92 2 1Z"/><path fill="#8ca6ba" d="m255 92 2 1Z"/><path fill="#d3e4ed" d="m484 89 2 1Z"/><path fill="#d3e4ec" d="m480 87 2 1Z"/><path fill="#cfe0eb" d="m475 85 2 1Z"/><path fill="#87a3bc" d="m317 83 2 1Z"/><path fill="#1c98dc" d="m85 73 2 1Z"/><path fill="#1499e0" d="m115 69 2 1Z"/><path fill="#b9d2dd" d="m444 68 2 1Z"/><path fill="#1397e4" d="m134 65 2 1Z"/><path fill="#96bdd2" d="m397 52 2 1Z"/><path fill="#2aaae9" d="m202 44 2 1Z"/><path fill="#4dc4f2" d="m302 14 2 1Z"/><path fill="#7bd5f1" d="m452 13 2 1Z"/><path fill="#5dccf2" d="m354 8 2 1Z"/>
</svg>